<?xml version="1.0" encoding="UTF-8" standalone="no"?>
<!DOCTYPE svg PUBLIC "-//W3C//DTD SVG 1.1//EN"
 "http://www.w3.org/Graphics/SVG/1.1/DTD/svg11.dtd">
<!-- Generated by graphviz version 2.42.3 (20191010.1750)
 -->
<!-- Title: %3 Pages: 1 -->
<svg width="938pt" height="226pt"
 viewBox="0.00 0.00 938.43 226.00" xmlns="http://www.w3.org/2000/svg" xmlns:xlink="http://www.w3.org/1999/xlink">
<g id="graph0" class="graph" transform="scale(1 1) rotate(0) translate(4 222)">
<title>%3</title>
<polygon fill="white" stroke="transparent" points="-4,4 -4,-222 934.43,-222 934.43,4 -4,4"/>
<g id="clust1" class="cluster">
<title>cluster8</title>
<path fill="none" stroke="black" d="M468.47,-8C468.47,-8 720.47,-8 720.47,-8 726.47,-8 732.47,-14 732.47,-20 732.47,-20 732.47,-142 732.47,-142 732.47,-148 726.47,-154 720.47,-154 720.47,-154 468.47,-154 468.47,-154 462.47,-154 456.47,-148 456.47,-142 456.47,-142 456.47,-20 456.47,-20 456.47,-14 462.47,-8 468.47,-8"/>
<text text-anchor="middle" x="720.97" y="-14.8" font-family="Times,serif" font-size="14.00">8</text>
</g>
<g id="clust2" class="cluster">
<title>cluster141</title>
<path fill="none" stroke="black" d="M222.47,-8C222.47,-8 366.47,-8 366.47,-8 372.47,-8 378.47,-14 378.47,-20 378.47,-20 378.47,-70 378.47,-70 378.47,-76 372.47,-82 366.47,-82 366.47,-82 222.47,-82 222.47,-82 216.47,-82 210.47,-76 210.47,-70 210.47,-70 210.47,-20 210.47,-20 210.47,-14 216.47,-8 222.47,-8"/>
<text text-anchor="middle" x="359.97" y="-14.8" font-family="Times,serif" font-size="14.00">141</text>
</g>
<!-- ϵ -->
<g id="node1" class="node">
<title>ϵ</title>
<ellipse fill="none" stroke="black" cx="224.47" cy="-128" rx="73.45" ry="18"/>
<text text-anchor="middle" x="224.47" y="-125.32" font-family="Times,serif" font-size="14.00">ϵ ~ HalfCauchy</text>
</g>
<!-- y_pred -->
<g id="node12" class="node">
<title>y_pred</title>
<ellipse fill="lightgrey" stroke="black" cx="294.47" cy="-56" rx="76.09" ry="18"/>
<text text-anchor="middle" x="294.47" y="-51.8" font-family="Times,serif" font-size="14.00">y_pred ~ StudentT</text>
</g>
<!-- ϵ&#45;&gt;y_pred -->
<g id="edge5" class="edge">
<title>ϵ&#45;&gt;y_pred</title>
<path fill="none" stroke="black" d="M241.06,-110.41C249.82,-101.65 260.73,-90.73 270.41,-81.06"/>
<polygon fill="black" stroke="black" points="272.91,-83.5 277.51,-73.96 267.96,-78.55 272.91,-83.5"/>
</g>
<!-- α_μ -->
<g id="node2" class="node">
<title>α_μ</title>
<polygon fill="none" stroke="black" points="446.58,-146 316.35,-146 316.35,-110 446.58,-110 446.58,-146"/>
<text text-anchor="middle" x="381.47" y="-123.8" font-family="Times,serif" font-size="14.00">α_μ ~ Deterministic</text>
</g>
<!-- α_μ_tmp -->
<g id="node3" class="node">
<title>α_μ_tmp</title>
<ellipse fill="none" stroke="black" cx="332.47" cy="-200" rx="79.5" ry="18"/>
<text text-anchor="middle" x="332.47" y="-195.8" font-family="Times,serif" font-size="14.00">α_μ_tmp ~ Normal</text>
</g>
<!-- α_μ_tmp&#45;&gt;α_μ -->
<g id="edge12" class="edge">
<title>α_μ_tmp&#45;&gt;α_μ</title>
<path fill="none" stroke="black" d="M344.33,-182.05C350.08,-173.84 357.11,-163.79 363.5,-154.66"/>
<polygon fill="black" stroke="black" points="366.51,-156.47 369.37,-146.28 360.77,-152.46 366.51,-156.47"/>
</g>
<!-- α_tmp -->
<g id="node10" class="node">
<title>α_tmp</title>
<ellipse fill="none" stroke="black" cx="654.47" cy="-128" rx="69.82" ry="18"/>
<text text-anchor="middle" x="654.47" y="-123.8" font-family="Times,serif" font-size="14.00">α_tmp ~ Normal</text>
</g>
<!-- α_μ_tmp&#45;&gt;α_tmp -->
<g id="edge1" class="edge">
<title>α_μ_tmp&#45;&gt;α_tmp</title>
<path fill="none" stroke="black" d="M390.86,-187.77C401.06,-185.83 411.57,-183.84 421.47,-182 489.86,-169.25 507.95,-170.75 575.47,-154 584.9,-151.66 594.85,-148.82 604.39,-145.89"/>
<polygon fill="black" stroke="black" points="605.65,-149.17 614.15,-142.84 603.56,-142.49 605.65,-149.17"/>
</g>
<!-- ν -->
<g id="node4" class="node">
<title>ν</title>
<ellipse fill="none" stroke="black" cx="66.47" cy="-128" rx="66.43" ry="18"/>
<text text-anchor="middle" x="66.47" y="-123.8" font-family="Times,serif" font-size="14.00">ν ~ Exponential</text>
</g>
<!-- ν&#45;&gt;y_pred -->
<g id="edge8" class="edge">
<title>ν&#45;&gt;y_pred</title>
<path fill="none" stroke="black" d="M108.82,-114C145.94,-102.6 200.1,-85.97 240.35,-73.61"/>
<polygon fill="black" stroke="black" points="241.47,-76.93 250.01,-70.65 239.42,-70.24 241.47,-76.93"/>
</g>
<!-- α_σ_tmp -->
<g id="node5" class="node">
<title>α_σ_tmp</title>
<ellipse fill="none" stroke="black" cx="835.47" cy="-200" rx="94.92" ry="18"/>
<text text-anchor="middle" x="835.47" y="-195.8" font-family="Times,serif" font-size="14.00">α_σ_tmp ~ HalfNormal</text>
</g>
<!-- α_sd -->
<g id="node6" class="node">
<title>α_sd</title>
<polygon fill="none" stroke="black" points="893.74,-146 759.19,-146 759.19,-110 893.74,-110 893.74,-146"/>
<text text-anchor="middle" x="826.47" y="-123.8" font-family="Times,serif" font-size="14.00">α_sd ~ Deterministic</text>
</g>
<!-- α_σ_tmp&#45;&gt;α_sd -->
<g id="edge14" class="edge">
<title>α_σ_tmp&#45;&gt;α_sd</title>
<path fill="none" stroke="black" d="M833.24,-181.7C832.25,-173.98 831.06,-164.71 829.95,-156.11"/>
<polygon fill="black" stroke="black" points="833.41,-155.58 828.67,-146.1 826.47,-156.47 833.41,-155.58"/>
</g>
<!-- α_σ_tmp&#45;&gt;α_tmp -->
<g id="edge2" class="edge">
<title>α_σ_tmp&#45;&gt;α_tmp</title>
<path fill="none" stroke="black" d="M795.75,-183.64C767.88,-172.86 730.53,-158.42 701.23,-147.08"/>
<polygon fill="black" stroke="black" points="702.21,-143.71 691.63,-143.37 699.69,-150.24 702.21,-143.71"/>
</g>
<!-- β_σ -->
<g id="node7" class="node">
<title>β_σ</title>
<ellipse fill="none" stroke="black" cx="506.47" cy="-200" rx="76.1" ry="18"/>
<text text-anchor="middle" x="506.47" y="-195.8" font-family="Times,serif" font-size="14.00">β_σ ~ HalfNormal</text>
</g>
<!-- β -->
<g id="node9" class="node">
<title>β</title>
<ellipse fill="none" stroke="black" cx="515.47" cy="-128" rx="51.49" ry="18"/>
<text text-anchor="middle" x="515.47" y="-123.8" font-family="Times,serif" font-size="14.00">β ~ Normal</text>
</g>
<!-- β_σ&#45;&gt;β -->
<g id="edge3" class="edge">
<title>β_σ&#45;&gt;β</title>
<path fill="none" stroke="black" d="M508.69,-181.7C509.68,-173.98 510.88,-164.71 511.98,-156.11"/>
<polygon fill="black" stroke="black" points="515.46,-156.47 513.27,-146.1 508.52,-155.58 515.46,-156.47"/>
</g>
<!-- β_μ -->
<g id="node8" class="node">
<title>β_μ</title>
<ellipse fill="none" stroke="black" cx="661.47" cy="-200" rx="60.67" ry="18"/>
<text text-anchor="middle" x="661.47" y="-195.8" font-family="Times,serif" font-size="14.00">β_μ ~ Normal</text>
</g>
<!-- β_μ&#45;&gt;α_μ -->
<g id="edge11" class="edge">
<title>β_μ&#45;&gt;α_μ</title>
<path fill="none" stroke="black" d="M616.72,-187.85C608.34,-185.85 599.65,-183.82 591.47,-182 529.95,-168.34 513.22,-170.73 452.47,-154 447.27,-152.57 441.9,-150.95 436.56,-149.24"/>
<polygon fill="black" stroke="black" points="437.59,-145.9 427,-146.09 435.4,-152.54 437.59,-145.9"/>
</g>
<!-- β_μ&#45;&gt;α_sd -->
<g id="edge13" class="edge">
<title>β_μ&#45;&gt;α_sd</title>
<path fill="none" stroke="black" d="M694.86,-184.83C718.34,-174.87 750.17,-161.37 776.64,-150.14"/>
<polygon fill="black" stroke="black" points="778.29,-153.24 786.13,-146.11 775.56,-146.8 778.29,-153.24"/>
</g>
<!-- β_μ&#45;&gt;β -->
<g id="edge4" class="edge">
<title>β_μ&#45;&gt;β</title>
<path fill="none" stroke="black" d="M630.86,-184.33C608.42,-173.57 577.8,-158.89 553.74,-147.35"/>
<polygon fill="black" stroke="black" points="555.07,-144.11 544.54,-142.94 552.04,-150.42 555.07,-144.11"/>
</g>
<!-- α -->
<g id="node11" class="node">
<title>α</title>
<polygon fill="none" stroke="black" points="646.29,-74 530.64,-74 530.64,-38 646.29,-38 646.29,-74"/>
<text text-anchor="middle" x="588.47" y="-51.8" font-family="Times,serif" font-size="14.00">α ~ Deterministic</text>
</g>
<!-- β&#45;&gt;α -->
<g id="edge9" class="edge">
<title>β&#45;&gt;α</title>
<path fill="none" stroke="black" d="M532.4,-110.76C541.53,-102.01 552.98,-91.03 563.14,-81.28"/>
<polygon fill="black" stroke="black" points="565.81,-83.57 570.61,-74.12 560.97,-78.52 565.81,-83.57"/>
</g>
<!-- β&#45;&gt;y_pred -->
<g id="edge6" class="edge">
<title>β&#45;&gt;y_pred</title>
<path fill="none" stroke="black" d="M478.48,-115.28C442.72,-103.96 388.16,-86.68 347.73,-73.87"/>
<polygon fill="black" stroke="black" points="348.63,-70.48 338.04,-70.8 346.51,-77.16 348.63,-70.48"/>
</g>
<!-- α_tmp&#45;&gt;α -->
<g id="edge10" class="edge">
<title>α_tmp&#45;&gt;α</title>
<path fill="none" stroke="black" d="M638.83,-110.41C630.76,-101.86 620.77,-91.26 611.82,-81.77"/>
<polygon fill="black" stroke="black" points="614.32,-79.32 604.92,-74.45 609.23,-84.12 614.32,-79.32"/>
</g>
<!-- α_tmp&#45;&gt;y_pred -->
<g id="edge7" class="edge">
<title>α_tmp&#45;&gt;y_pred</title>
<path fill="none" stroke="black" d="M603.09,-115.74C593.9,-113.79 584.41,-111.8 575.47,-110 503.05,-95.38 419.87,-79.85 362.91,-69.4"/>
<polygon fill="black" stroke="black" points="363.41,-65.94 352.94,-67.58 362.15,-72.82 363.41,-65.94"/>
</g>
</g>
</svg>
