<?xml version="1.0" encoding="UTF-8" standalone="no"?>
<!DOCTYPE svg PUBLIC "-//W3C//DTD SVG 1.1//EN"
 "http://www.w3.org/Graphics/SVG/1.1/DTD/svg11.dtd">
<!-- Generated by graphviz version 2.40.1 (20161225.0304)
 -->
<!-- Title: %3 Pages: 1 -->
<svg width="236pt" height="233pt"
 viewBox="0.00 0.00 236.36 232.91" xmlns="http://www.w3.org/2000/svg" xmlns:xlink="http://www.w3.org/1999/xlink">
<g id="graph0" class="graph" transform="scale(1 1) rotate(0) translate(4 228.9066)">
<title>%3</title>
<polygon fill="#ffffff" stroke="transparent" points="-4,4 -4,-228.9066 232.3589,-228.9066 232.3589,4 -4,4"/>
<g id="clust1" class="cluster">
<title>cluster47</title>
<path fill="none" stroke="#000000" d="M68.9619,-8C68.9619,-8 144.9619,-8 144.9619,-8 150.9619,-8 156.9619,-14 156.9619,-20 156.9619,-20 156.9619,-109.9533 156.9619,-109.9533 156.9619,-115.9533 150.9619,-121.9533 144.9619,-121.9533 144.9619,-121.9533 68.9619,-121.9533 68.9619,-121.9533 62.9619,-121.9533 56.9619,-115.9533 56.9619,-109.9533 56.9619,-109.9533 56.9619,-20 56.9619,-20 56.9619,-14 62.9619,-8 68.9619,-8"/>
<text text-anchor="middle" x="141.4619" y="-15.8" font-family="Times,serif" font-size="14.00" fill="#000000">47</text>
</g>
<!-- μ -->
<g id="node1" class="node">
<title>μ</title>
<ellipse fill="none" stroke="#000000" cx="45.9619" cy="-187.43" rx="45.9239" ry="37.4533"/>
<text text-anchor="middle" x="45.9619" y="-198.73" font-family="Times,serif" font-size="14.00" fill="#000000">μ</text>
<text text-anchor="middle" x="45.9619" y="-183.73" font-family="Times,serif" font-size="14.00" fill="#000000">~</text>
<text text-anchor="middle" x="45.9619" y="-168.73" font-family="Times,serif" font-size="14.00" fill="#000000">Uniform</text>
</g>
<!-- y -->
<g id="node3" class="node">
<title>y</title>
<ellipse fill="#d3d3d3" stroke="#000000" cx="106.9619" cy="-76.4767" rx="41.9398" ry="37.4533"/>
<text text-anchor="middle" x="106.9619" y="-87.7767" font-family="Times,serif" font-size="14.00" fill="#000000">y</text>
<text text-anchor="middle" x="106.9619" y="-72.7767" font-family="Times,serif" font-size="14.00" fill="#000000">~</text>
<text text-anchor="middle" x="106.9619" y="-57.7767" font-family="Times,serif" font-size="14.00" fill="#000000">Normal</text>
</g>
<!-- μ&#45;&gt;y -->
<g id="edge1" class="edge">
<title>μ&#45;&gt;y</title>
<path fill="none" stroke="#000000" d="M64.9283,-152.9319C70.834,-142.19 77.4163,-130.2174 83.5865,-118.9944"/>
<polygon fill="#000000" stroke="#000000" points="86.675,-120.6415 88.4257,-110.1923 80.5409,-117.2691 86.675,-120.6415"/>
</g>
<!-- σ -->
<g id="node2" class="node">
<title>σ</title>
<ellipse fill="none" stroke="#000000" cx="168.9619" cy="-187.43" rx="59.2941" ry="37.4533"/>
<text text-anchor="middle" x="168.9619" y="-198.73" font-family="Times,serif" font-size="14.00" fill="#000000">σ</text>
<text text-anchor="middle" x="168.9619" y="-183.73" font-family="Times,serif" font-size="14.00" fill="#000000">~</text>
<text text-anchor="middle" x="168.9619" y="-168.73" font-family="Times,serif" font-size="14.00" fill="#000000">HalfNormal</text>
</g>
<!-- σ&#45;&gt;y -->
<g id="edge2" class="edge">
<title>σ&#45;&gt;y</title>
<path fill="none" stroke="#000000" d="M149.1743,-152.0186C143.3047,-141.5146 136.8154,-129.9014 130.7214,-118.9959"/>
<polygon fill="#000000" stroke="#000000" points="133.6512,-117.0637 125.7178,-110.0415 127.5405,-120.4784 133.6512,-117.0637"/>
</g>
</g>
</svg>
