<?xml version="1.0" encoding="UTF-8" standalone="no"?>
<!DOCTYPE svg PUBLIC "-//W3C//DTD SVG 1.1//EN"
 "http://www.w3.org/Graphics/SVG/1.1/DTD/svg11.dtd">
<!-- Generated by graphviz version 2.42.3 (20191010.1750)
 -->
<!-- Title: %3 Pages: 1 -->
<svg width="480pt" height="180pt"
 viewBox="0.00 0.00 480.16 180.00" xmlns="http://www.w3.org/2000/svg" xmlns:xlink="http://www.w3.org/1999/xlink">
<g id="graph0" class="graph" transform="scale(1 1) rotate(0) translate(4 176)">
<title>%3</title>
<polygon fill="white" stroke="transparent" points="-4,4 -4,-176 476.16,-176 476.16,4 -4,4"/>
<g id="clust1" class="cluster">
<title>cluster2</title>
<path fill="none" stroke="black" d="M338.16,-90C338.16,-90 452.16,-90 452.16,-90 458.16,-90 464.16,-96 464.16,-102 464.16,-102 464.16,-152 464.16,-152 464.16,-158 458.16,-164 452.16,-164 452.16,-164 338.16,-164 338.16,-164 332.16,-164 326.16,-158 326.16,-152 326.16,-152 326.16,-102 326.16,-102 326.16,-96 332.16,-90 338.16,-90"/>
<text text-anchor="middle" x="452.66" y="-96.8" font-family="Times,serif" font-size="14.00">2</text>
</g>
<g id="clust2" class="cluster">
<title>cluster100</title>
<path fill="none" stroke="black" d="M185.16,-8C185.16,-8 315.16,-8 315.16,-8 321.16,-8 327.16,-14 327.16,-20 327.16,-20 327.16,-70 327.16,-70 327.16,-76 321.16,-82 315.16,-82 315.16,-82 185.16,-82 185.16,-82 179.16,-82 173.16,-76 173.16,-70 173.16,-70 173.16,-20 173.16,-20 173.16,-14 179.16,-8 185.16,-8"/>
<text text-anchor="middle" x="308.66" y="-14.8" font-family="Times,serif" font-size="14.00">100</text>
</g>
<!-- sigma -->
<g id="node1" class="node">
<title>sigma</title>
<ellipse fill="none" stroke="black" cx="83.16" cy="-138" rx="83.33" ry="18"/>
<text text-anchor="middle" x="83.16" y="-133.8" font-family="Times,serif" font-size="14.00">sigma ~ HalfNormal</text>
</g>
<!-- Y_obs -->
<g id="node4" class="node">
<title>Y_obs</title>
<ellipse fill="lightgrey" stroke="black" cx="250.16" cy="-56" rx="69.34" ry="18"/>
<text text-anchor="middle" x="250.16" y="-51.8" font-family="Times,serif" font-size="14.00">Y_obs ~ Normal</text>
</g>
<!-- sigma&#45;&gt;Y_obs -->
<g id="edge1" class="edge">
<title>sigma&#45;&gt;Y_obs</title>
<path fill="none" stroke="black" d="M113.56,-121.17C131.64,-111.87 155.09,-100.02 176.16,-90 185.99,-85.33 196.62,-80.47 206.69,-75.97"/>
<polygon fill="black" stroke="black" points="208.4,-79.03 216.11,-71.77 205.56,-72.64 208.4,-79.03"/>
</g>
<!-- alpha -->
<g id="node2" class="node">
<title>alpha</title>
<ellipse fill="none" stroke="black" cx="250.16" cy="-138" rx="65.46" ry="18"/>
<text text-anchor="middle" x="250.16" y="-133.8" font-family="Times,serif" font-size="14.00">alpha ~ Normal</text>
</g>
<!-- alpha&#45;&gt;Y_obs -->
<g id="edge3" class="edge">
<title>alpha&#45;&gt;Y_obs</title>
<path fill="none" stroke="black" d="M250.16,-119.64C250.16,-109.3 250.16,-95.94 250.16,-84.22"/>
<polygon fill="black" stroke="black" points="253.66,-84.05 250.16,-74.05 246.66,-84.05 253.66,-84.05"/>
</g>
<!-- beta -->
<g id="node3" class="node">
<title>beta</title>
<ellipse fill="none" stroke="black" cx="395.16" cy="-138" rx="61.11" ry="18"/>
<text text-anchor="middle" x="395.16" y="-133.8" font-family="Times,serif" font-size="14.00">beta ~ Normal</text>
</g>
<!-- beta&#45;&gt;Y_obs -->
<g id="edge2" class="edge">
<title>beta&#45;&gt;Y_obs</title>
<path fill="none" stroke="black" d="M373.05,-120.99C359.33,-111.41 341.14,-99.32 324.16,-90 315.1,-85.02 305.14,-80.19 295.55,-75.81"/>
<polygon fill="black" stroke="black" points="296.68,-72.49 286.13,-71.61 293.83,-78.88 296.68,-72.49"/>
</g>
</g>
</svg>
