<?xml version="1.0" encoding="UTF-8" standalone="no"?>
<!DOCTYPE svg PUBLIC "-//W3C//DTD SVG 1.1//EN"
 "http://www.w3.org/Graphics/SVG/1.1/DTD/svg11.dtd">
<!-- Generated by graphviz version 2.42.3 (20191010.1750)
 -->
<!-- Title: %3 Pages: 1 -->
<svg width="420pt" height="154pt"
 viewBox="0.00 0.00 420.43 154.00" xmlns="http://www.w3.org/2000/svg" xmlns:xlink="http://www.w3.org/1999/xlink">
<g id="graph0" class="graph" transform="scale(1 1) rotate(0) translate(4 150)">
<title>%3</title>
<polygon fill="white" stroke="transparent" points="-4,4 -4,-150 416.43,-150 416.43,4 -4,4"/>
<g id="clust1" class="cluster">
<title>cluster47</title>
<path fill="none" stroke="black" d="M153.47,-8C153.47,-8 257.47,-8 257.47,-8 263.47,-8 269.47,-14 269.47,-20 269.47,-20 269.47,-70 269.47,-70 269.47,-76 263.47,-82 257.47,-82 257.47,-82 153.47,-82 153.47,-82 147.47,-82 141.47,-76 141.47,-70 141.47,-70 141.47,-20 141.47,-20 141.47,-14 147.47,-8 153.47,-8"/>
<text text-anchor="middle" x="254.47" y="-14.8" font-family="Times,serif" font-size="14.00">47</text>
</g>
<!-- ν -->
<g id="node1" class="node">
<title>ν</title>
<ellipse fill="none" stroke="black" cx="66.47" cy="-128" rx="66.43" ry="18"/>
<text text-anchor="middle" x="66.47" y="-123.8" font-family="Times,serif" font-size="14.00">ν ~ Exponential</text>
</g>
<!-- y -->
<g id="node4" class="node">
<title>y</title>
<ellipse fill="lightgrey" stroke="black" cx="205.47" cy="-56" rx="56.32" ry="18"/>
<text text-anchor="middle" x="205.47" y="-51.8" font-family="Times,serif" font-size="14.00">y ~ StudentT</text>
</g>
<!-- ν&#45;&gt;y -->
<g id="edge1" class="edge">
<title>ν&#45;&gt;y</title>
<path fill="none" stroke="black" d="M96.63,-111.81C117.31,-101.4 144.92,-87.49 167.15,-76.29"/>
<polygon fill="black" stroke="black" points="168.96,-79.3 176.32,-71.68 165.81,-73.05 168.96,-79.3"/>
</g>
<!-- μ -->
<g id="node2" class="node">
<title>μ</title>
<ellipse fill="none" stroke="black" cx="205.47" cy="-128" rx="54.87" ry="18"/>
<text text-anchor="middle" x="205.47" y="-123.8" font-family="Times,serif" font-size="14.00">μ ~ Uniform</text>
</g>
<!-- μ&#45;&gt;y -->
<g id="edge2" class="edge">
<title>μ&#45;&gt;y</title>
<path fill="none" stroke="black" d="M205.47,-109.7C205.47,-101.98 205.47,-92.71 205.47,-84.11"/>
<polygon fill="black" stroke="black" points="208.97,-84.1 205.47,-74.1 201.97,-84.1 208.97,-84.1"/>
</g>
<!-- σ -->
<g id="node3" class="node">
<title>σ</title>
<ellipse fill="none" stroke="black" cx="345.47" cy="-128" rx="66.92" ry="18"/>
<text text-anchor="middle" x="345.47" y="-123.8" font-family="Times,serif" font-size="14.00">σ ~ HalfNormal</text>
</g>
<!-- σ&#45;&gt;y -->
<g id="edge3" class="edge">
<title>σ&#45;&gt;y</title>
<path fill="none" stroke="black" d="M315.09,-111.81C294.03,-101.28 265.83,-87.18 243.3,-75.92"/>
<polygon fill="black" stroke="black" points="244.86,-72.78 234.35,-71.44 241.73,-79.04 244.86,-72.78"/>
</g>
</g>
</svg>
