<?xml version="1.0" encoding="UTF-8" standalone="no"?>
<!DOCTYPE svg PUBLIC "-//W3C//DTD SVG 1.1//EN"
 "http://www.w3.org/Graphics/SVG/1.1/DTD/svg11.dtd">
<!-- Generated by graphviz version 2.42.3 (20191010.1750)
 -->
<!-- Title: %3 Pages: 1 -->
<svg width="420pt" height="154pt"
 viewBox="0.00 0.00 419.65 154.00" xmlns="http://www.w3.org/2000/svg" xmlns:xlink="http://www.w3.org/1999/xlink">
<g id="graph0" class="graph" transform="scale(1 1) rotate(0) translate(4 150)">
<title>%3</title>
<polygon fill="white" stroke="transparent" points="-4,4 -4,-150 415.65,-150 415.65,4 -4,4"/>
<g id="clust1" class="cluster">
<title>cluster47</title>
<path fill="none" stroke="black" d="M165.96,-8C165.96,-8 269.96,-8 269.96,-8 275.96,-8 281.96,-14 281.96,-20 281.96,-20 281.96,-70 281.96,-70 281.96,-76 275.96,-82 269.96,-82 269.96,-82 165.96,-82 165.96,-82 159.96,-82 153.96,-76 153.96,-70 153.96,-70 153.96,-20 153.96,-20 153.96,-14 159.96,-8 165.96,-8"/>
<text text-anchor="middle" x="266.96" y="-14.8" font-family="Times,serif" font-size="14.00">47</text>
</g>
<!-- σ -->
<g id="node1" class="node">
<title>σ</title>
<ellipse fill="none" stroke="black" cx="66.96" cy="-128" rx="66.92" ry="18"/>
<text text-anchor="middle" x="66.96" y="-123.8" font-family="Times,serif" font-size="14.00">σ ~ HalfNormal</text>
</g>
<!-- y -->
<g id="node4" class="node">
<title>y</title>
<ellipse fill="lightgrey" stroke="black" cx="217.96" cy="-56" rx="56.32" ry="18"/>
<text text-anchor="middle" x="217.96" y="-51.8" font-family="Times,serif" font-size="14.00">y ~ StudentT</text>
</g>
<!-- σ&#45;&gt;y -->
<g id="edge1" class="edge">
<title>σ&#45;&gt;y</title>
<path fill="none" stroke="black" d="M98.98,-112.15C122.09,-101.44 153.44,-86.91 178.15,-75.45"/>
<polygon fill="black" stroke="black" points="179.67,-78.61 187.27,-71.23 176.73,-72.26 179.67,-78.61"/>
</g>
<!-- ν -->
<g id="node2" class="node">
<title>ν</title>
<ellipse fill="none" stroke="black" cx="217.96" cy="-128" rx="66.43" ry="18"/>
<text text-anchor="middle" x="217.96" y="-123.8" font-family="Times,serif" font-size="14.00">ν ~ Exponential</text>
</g>
<!-- ν&#45;&gt;y -->
<g id="edge2" class="edge">
<title>ν&#45;&gt;y</title>
<path fill="none" stroke="black" d="M217.96,-109.7C217.96,-101.98 217.96,-92.71 217.96,-84.11"/>
<polygon fill="black" stroke="black" points="221.46,-84.1 217.96,-74.1 214.46,-84.1 221.46,-84.1"/>
</g>
<!-- μ -->
<g id="node3" class="node">
<title>μ</title>
<ellipse fill="none" stroke="black" cx="356.96" cy="-128" rx="54.87" ry="18"/>
<text text-anchor="middle" x="356.96" y="-123.8" font-family="Times,serif" font-size="14.00">μ ~ Uniform</text>
</g>
<!-- μ&#45;&gt;y -->
<g id="edge3" class="edge">
<title>μ&#45;&gt;y</title>
<path fill="none" stroke="black" d="M328.16,-112.5C307.19,-101.94 278.59,-87.54 255.79,-76.05"/>
<polygon fill="black" stroke="black" points="257.23,-72.86 246.72,-71.49 254.08,-79.11 257.23,-72.86"/>
</g>
</g>
</svg>
