<?xml version="1.0" encoding="UTF-8" standalone="no"?>
<!DOCTYPE svg PUBLIC "-//W3C//DTD SVG 1.1//EN"
 "http://www.w3.org/Graphics/SVG/1.1/DTD/svg11.dtd">
<!-- Generated by graphviz version 2.42.3 (20191010.1750)
 -->
<!-- Title: %3 Pages: 1 -->
<svg width="240pt" height="233pt"
 viewBox="0.00 0.00 239.77 232.91" xmlns="http://www.w3.org/2000/svg" xmlns:xlink="http://www.w3.org/1999/xlink">
<g id="graph0" class="graph" transform="scale(1 1) rotate(0) translate(4 228.91)">
<title>%3</title>
<polygon fill="white" stroke="transparent" points="-4,4 -4,-228.91 235.77,-228.91 235.77,4 -4,4"/>
<g id="clust1" class="cluster">
<title>cluster47</title>
<path fill="none" stroke="black" d="M84.1,-8C84.1,-8 160.1,-8 160.1,-8 166.1,-8 172.1,-14 172.1,-20 172.1,-20 172.1,-109.95 172.1,-109.95 172.1,-115.95 166.1,-121.95 160.1,-121.95 160.1,-121.95 84.1,-121.95 84.1,-121.95 78.1,-121.95 72.1,-115.95 72.1,-109.95 72.1,-109.95 72.1,-20 72.1,-20 72.1,-14 78.1,-8 84.1,-8"/>
<text text-anchor="middle" x="156.1" y="-15.8" font-family="Times,serif" font-size="14.00">47</text>
</g>
<!-- σ -->
<g id="node1" class="node">
<title>σ</title>
<ellipse fill="none" stroke="black" cx="60.1" cy="-187.43" rx="60.21" ry="37.45"/>
<text text-anchor="middle" x="60.1" y="-198.73" font-family="Times,serif" font-size="14.00">σ</text>
<text text-anchor="middle" x="60.1" y="-183.73" font-family="Times,serif" font-size="14.00">~</text>
<text text-anchor="middle" x="60.1" y="-168.73" font-family="Times,serif" font-size="14.00">HalfNormal</text>
</g>
<!-- y -->
<g id="node3" class="node">
<title>y</title>
<ellipse fill="lightgrey" stroke="black" cx="122.1" cy="-76.48" rx="42.35" ry="37.45"/>
<text text-anchor="middle" x="122.1" y="-87.78" font-family="Times,serif" font-size="14.00">y</text>
<text text-anchor="middle" x="122.1" y="-72.78" font-family="Times,serif" font-size="14.00">~</text>
<text text-anchor="middle" x="122.1" y="-57.78" font-family="Times,serif" font-size="14.00">Normal</text>
</g>
<!-- σ&#45;&gt;y -->
<g id="edge1" class="edge">
<title>σ&#45;&gt;y</title>
<path fill="none" stroke="black" d="M79.72,-151.96C85.65,-141.53 92.23,-129.98 98.4,-119.14"/>
<polygon fill="black" stroke="black" points="101.56,-120.66 103.46,-110.24 95.47,-117.2 101.56,-120.66"/>
</g>
<!-- μ -->
<g id="node2" class="node">
<title>μ</title>
<ellipse fill="none" stroke="black" cx="185.1" cy="-187.43" rx="46.84" ry="37.45"/>
<text text-anchor="middle" x="185.1" y="-198.73" font-family="Times,serif" font-size="14.00">μ</text>
<text text-anchor="middle" x="185.1" y="-183.73" font-family="Times,serif" font-size="14.00">~</text>
<text text-anchor="middle" x="185.1" y="-168.73" font-family="Times,serif" font-size="14.00">Uniform</text>
</g>
<!-- μ&#45;&gt;y -->
<g id="edge2" class="edge">
<title>μ&#45;&gt;y</title>
<path fill="none" stroke="black" d="M165.86,-153.15C159.64,-142.38 152.65,-130.31 146.13,-119.02"/>
<polygon fill="black" stroke="black" points="149.05,-117.09 141.01,-110.18 142.99,-120.59 149.05,-117.09"/>
</g>
</g>
</svg>
