<?xml version="1.0" encoding="UTF-8" standalone="no"?>
<!DOCTYPE svg PUBLIC "-//W3C//DTD SVG 1.1//EN"
 "http://www.w3.org/Graphics/SVG/1.1/DTD/svg11.dtd">
<!-- Generated by graphviz version 2.42.3 (20191010.1750)
 -->
<!-- Title: %3 Pages: 1 -->
<svg width="280pt" height="226pt"
 viewBox="0.00 0.00 280.39 226.00" xmlns="http://www.w3.org/2000/svg" xmlns:xlink="http://www.w3.org/1999/xlink">
<g id="graph0" class="graph" transform="scale(1 1) rotate(0) translate(4 222)">
<title>%3</title>
<polygon fill="white" stroke="transparent" points="-4,4 -4,-222 276.39,-222 276.39,4 -4,4"/>
<g id="clust1" class="cluster">
<title>cluster100</title>
<path fill="none" stroke="black" d="M140.39,-8C140.39,-8 252.39,-8 252.39,-8 258.39,-8 264.39,-14 264.39,-20 264.39,-20 264.39,-142 264.39,-142 264.39,-148 258.39,-154 252.39,-154 252.39,-154 140.39,-154 140.39,-154 134.39,-154 128.39,-148 128.39,-142 128.39,-142 128.39,-20 128.39,-20 128.39,-14 134.39,-8 140.39,-8"/>
<text text-anchor="middle" x="245.89" y="-14.8" font-family="Times,serif" font-size="14.00">100</text>
</g>
<!-- β -->
<g id="node1" class="node">
<title>β</title>
<ellipse fill="none" stroke="black" cx="67.39" cy="-200" rx="51.49" ry="18"/>
<text text-anchor="middle" x="67.39" y="-195.8" font-family="Times,serif" font-size="14.00">β ~ Normal</text>
</g>
<!-- bd -->
<g id="node3" class="node">
<title>bd</title>
<polygon fill="none" stroke="black" points="120.66,-146 0.11,-146 0.11,-110 120.66,-110 120.66,-146"/>
<text text-anchor="middle" x="60.39" y="-123.8" font-family="Times,serif" font-size="14.00">bd ~ Deterministic</text>
</g>
<!-- β&#45;&gt;bd -->
<g id="edge3" class="edge">
<title>β&#45;&gt;bd</title>
<path fill="none" stroke="black" d="M65.66,-181.7C64.89,-173.98 63.96,-164.71 63.1,-156.11"/>
<polygon fill="black" stroke="black" points="66.58,-155.71 62.1,-146.1 59.61,-156.4 66.58,-155.71"/>
</g>
<!-- θ -->
<g id="node4" class="node">
<title>θ</title>
<polygon fill="none" stroke="black" points="253.45,-146 139.33,-146 139.33,-110 253.45,-110 253.45,-146"/>
<text text-anchor="middle" x="196.39" y="-123.8" font-family="Times,serif" font-size="14.00">θ ~ Deterministic</text>
</g>
<!-- β&#45;&gt;θ -->
<g id="edge1" class="edge">
<title>β&#45;&gt;θ</title>
<path fill="none" stroke="black" d="M94.12,-184.5C111.91,-174.84 135.62,-161.98 155.73,-151.06"/>
<polygon fill="black" stroke="black" points="157.56,-154.05 164.68,-146.2 154.22,-147.9 157.56,-154.05"/>
</g>
<!-- α -->
<g id="node2" class="node">
<title>α</title>
<ellipse fill="none" stroke="black" cx="192.39" cy="-200" rx="51.96" ry="18"/>
<text text-anchor="middle" x="192.39" y="-195.8" font-family="Times,serif" font-size="14.00">α ~ Normal</text>
</g>
<!-- α&#45;&gt;bd -->
<g id="edge4" class="edge">
<title>α&#45;&gt;bd</title>
<path fill="none" stroke="black" d="M165.04,-184.5C146.75,-174.8 122.35,-161.86 101.71,-150.91"/>
<polygon fill="black" stroke="black" points="103.3,-147.8 92.83,-146.2 100.02,-153.98 103.3,-147.8"/>
</g>
<!-- α&#45;&gt;θ -->
<g id="edge2" class="edge">
<title>α&#45;&gt;θ</title>
<path fill="none" stroke="black" d="M193.38,-181.7C193.82,-173.98 194.35,-164.71 194.84,-156.11"/>
<polygon fill="black" stroke="black" points="198.33,-156.29 195.41,-146.1 191.34,-155.89 198.33,-156.29"/>
</g>
<!-- yl -->
<g id="node5" class="node">
<title>yl</title>
<ellipse fill="lightgrey" stroke="black" cx="196.39" cy="-56" rx="59.69" ry="18"/>
<text text-anchor="middle" x="196.39" y="-51.8" font-family="Times,serif" font-size="14.00">yl ~ Bernoulli</text>
</g>
<!-- θ&#45;&gt;yl -->
<g id="edge5" class="edge">
<title>θ&#45;&gt;yl</title>
<path fill="none" stroke="black" d="M196.39,-109.7C196.39,-101.98 196.39,-92.71 196.39,-84.11"/>
<polygon fill="black" stroke="black" points="199.89,-84.1 196.39,-74.1 192.89,-84.1 199.89,-84.1"/>
</g>
</g>
</svg>
