<?xml version="1.0" encoding="UTF-8" standalone="no"?>
<!DOCTYPE svg PUBLIC "-//W3C//DTD SVG 1.1//EN"
 "http://www.w3.org/Graphics/SVG/1.1/DTD/svg11.dtd">
<!-- Generated by graphviz version 2.42.3 (20191010.1750)
 -->
<!-- Title: %3 Pages: 1 -->
<svg width="433pt" height="180pt"
 viewBox="0.00 0.00 433.38 180.00" xmlns="http://www.w3.org/2000/svg" xmlns:xlink="http://www.w3.org/1999/xlink">
<g id="graph0" class="graph" transform="scale(1 1) rotate(0) translate(4 176)">
<title>%3</title>
<polygon fill="white" stroke="transparent" points="-4,4 -4,-176 429.38,-176 429.38,4 -4,4"/>
<g id="clust1" class="cluster">
<title>cluster2</title>
<path fill="none" stroke="black" d="M169.47,-90C169.47,-90 263.47,-90 263.47,-90 269.47,-90 275.47,-96 275.47,-102 275.47,-102 275.47,-152 275.47,-152 275.47,-158 269.47,-164 263.47,-164 263.47,-164 169.47,-164 169.47,-164 163.47,-164 157.47,-158 157.47,-152 157.47,-152 157.47,-102 157.47,-102 157.47,-96 163.47,-90 169.47,-90"/>
<text text-anchor="middle" x="263.97" y="-96.8" font-family="Times,serif" font-size="14.00">2</text>
</g>
<g id="clust2" class="cluster">
<title>cluster100</title>
<path fill="none" stroke="black" d="M141.47,-8C141.47,-8 275.47,-8 275.47,-8 281.47,-8 287.47,-14 287.47,-20 287.47,-20 287.47,-70 287.47,-70 287.47,-76 281.47,-82 275.47,-82 275.47,-82 141.47,-82 141.47,-82 135.47,-82 129.47,-76 129.47,-70 129.47,-70 129.47,-20 129.47,-20 129.47,-14 135.47,-8 141.47,-8"/>
<text text-anchor="middle" x="268.97" y="-14.8" font-family="Times,serif" font-size="14.00">100</text>
</g>
<!-- ϵ -->
<g id="node1" class="node">
<title>ϵ</title>
<ellipse fill="none" stroke="black" cx="73.47" cy="-138" rx="73.45" ry="18"/>
<text text-anchor="middle" x="73.47" y="-135.32" font-family="Times,serif" font-size="14.00">ϵ ~ HalfCauchy</text>
</g>
<!-- y_pred -->
<g id="node5" class="node">
<title>y_pred</title>
<ellipse fill="lightgrey" stroke="black" cx="208.47" cy="-56" rx="70.77" ry="18"/>
<text text-anchor="middle" x="208.47" y="-51.8" font-family="Times,serif" font-size="14.00">y_pred ~ Normal</text>
</g>
<!-- ϵ&#45;&gt;y_pred -->
<g id="edge3" class="edge">
<title>ϵ&#45;&gt;y_pred</title>
<path fill="none" stroke="black" d="M100.15,-121.19C121.04,-108.81 150.29,-91.48 173.14,-77.94"/>
<polygon fill="black" stroke="black" points="175.04,-80.88 181.86,-72.77 171.47,-74.86 175.04,-80.88"/>
</g>
<!-- α_tmp -->
<g id="node2" class="node">
<title>α_tmp</title>
<ellipse fill="none" stroke="black" cx="355.47" cy="-138" rx="69.82" ry="18"/>
<text text-anchor="middle" x="355.47" y="-133.8" font-family="Times,serif" font-size="14.00">α_tmp ~ Normal</text>
</g>
<!-- α -->
<g id="node3" class="node">
<title>α</title>
<polygon fill="none" stroke="black" points="413.3,-74 297.65,-74 297.65,-38 413.3,-38 413.3,-74"/>
<text text-anchor="middle" x="355.47" y="-51.8" font-family="Times,serif" font-size="14.00">α ~ Deterministic</text>
</g>
<!-- α_tmp&#45;&gt;α -->
<g id="edge2" class="edge">
<title>α_tmp&#45;&gt;α</title>
<path fill="none" stroke="black" d="M355.47,-119.64C355.47,-109.3 355.47,-95.94 355.47,-84.22"/>
<polygon fill="black" stroke="black" points="358.98,-84.05 355.47,-74.05 351.98,-84.05 358.98,-84.05"/>
</g>
<!-- α_tmp&#45;&gt;y_pred -->
<g id="edge5" class="edge">
<title>α_tmp&#45;&gt;y_pred</title>
<path fill="none" stroke="black" d="M331.27,-121.01C316.55,-111.54 297.23,-99.57 279.47,-90 270.59,-85.21 260.89,-80.42 251.59,-76.04"/>
<polygon fill="black" stroke="black" points="253.01,-72.84 242.47,-71.81 250.06,-79.19 253.01,-72.84"/>
</g>
<!-- β -->
<g id="node4" class="node">
<title>β</title>
<ellipse fill="none" stroke="black" cx="216.47" cy="-138" rx="51.49" ry="18"/>
<text text-anchor="middle" x="216.47" y="-133.8" font-family="Times,serif" font-size="14.00">β ~ Normal</text>
</g>
<!-- β&#45;&gt;α -->
<g id="edge1" class="edge">
<title>β&#45;&gt;α</title>
<path fill="none" stroke="black" d="M234.2,-121.04C245.69,-111.24 261.29,-98.9 276.47,-90 281.63,-86.98 291.36,-82.59 302.26,-78"/>
<polygon fill="black" stroke="black" points="303.73,-81.18 311.63,-74.13 301.05,-74.72 303.73,-81.18"/>
</g>
<!-- β&#45;&gt;y_pred -->
<g id="edge4" class="edge">
<title>β&#45;&gt;y_pred</title>
<path fill="none" stroke="black" d="M214.74,-119.64C213.7,-109.3 212.37,-95.94 211.2,-84.22"/>
<polygon fill="black" stroke="black" points="214.66,-83.65 210.18,-74.05 207.69,-84.35 214.66,-83.65"/>
</g>
</g>
</svg>
