<?xml version="1.0" encoding="UTF-8" standalone="no"?>
<!DOCTYPE svg PUBLIC "-//W3C//DTD SVG 1.1//EN"
 "http://www.w3.org/Graphics/SVG/1.1/DTD/svg11.dtd">
<!-- Generated by graphviz version 2.42.3 (20191010.1750)
 -->
<!-- Title: %3 Pages: 1 -->
<svg width="270pt" height="154pt"
 viewBox="0.00 0.00 269.65 154.00" xmlns="http://www.w3.org/2000/svg" xmlns:xlink="http://www.w3.org/1999/xlink">
<g id="graph0" class="graph" transform="scale(1 1) rotate(0) translate(4 150)">
<title>%3</title>
<polygon fill="white" stroke="transparent" points="-4,4 -4,-150 265.65,-150 265.65,4 -4,4"/>
<g id="clust1" class="cluster">
<title>cluster47</title>
<path fill="none" stroke="black" d="M89.96,-8C89.96,-8 183.96,-8 183.96,-8 189.96,-8 195.96,-14 195.96,-20 195.96,-20 195.96,-70 195.96,-70 195.96,-76 189.96,-82 183.96,-82 183.96,-82 89.96,-82 89.96,-82 83.96,-82 77.96,-76 77.96,-70 77.96,-70 77.96,-20 77.96,-20 77.96,-14 83.96,-8 89.96,-8"/>
<text text-anchor="middle" x="180.96" y="-14.8" font-family="Times,serif" font-size="14.00">47</text>
</g>
<!-- σ -->
<g id="node1" class="node">
<title>σ</title>
<ellipse fill="none" stroke="black" cx="66.96" cy="-128" rx="66.92" ry="18"/>
<text text-anchor="middle" x="66.96" y="-123.8" font-family="Times,serif" font-size="14.00">σ ~ HalfNormal</text>
</g>
<!-- y -->
<g id="node3" class="node">
<title>y</title>
<ellipse fill="lightgrey" stroke="black" cx="136.96" cy="-56" rx="51" ry="18"/>
<text text-anchor="middle" x="136.96" y="-51.8" font-family="Times,serif" font-size="14.00">y ~ Normal</text>
</g>
<!-- σ&#45;&gt;y -->
<g id="edge1" class="edge">
<title>σ&#45;&gt;y</title>
<path fill="none" stroke="black" d="M83.55,-110.41C92.44,-101.52 103.55,-90.41 113.33,-80.63"/>
<polygon fill="black" stroke="black" points="115.89,-83.02 120.49,-73.47 110.94,-78.07 115.89,-83.02"/>
</g>
<!-- μ -->
<g id="node2" class="node">
<title>μ</title>
<ellipse fill="none" stroke="black" cx="206.96" cy="-128" rx="54.87" ry="18"/>
<text text-anchor="middle" x="206.96" y="-123.8" font-family="Times,serif" font-size="14.00">μ ~ Uniform</text>
</g>
<!-- μ&#45;&gt;y -->
<g id="edge2" class="edge">
<title>μ&#45;&gt;y</title>
<path fill="none" stroke="black" d="M190.72,-110.76C181.71,-101.75 170.34,-90.39 160.38,-80.43"/>
<polygon fill="black" stroke="black" points="162.65,-77.74 153.11,-73.15 157.7,-82.69 162.65,-77.74"/>
</g>
</g>
</svg>
