<?xml version="1.0" encoding="UTF-8" standalone="no"?>
<!DOCTYPE svg PUBLIC "-//W3C//DTD SVG 1.1//EN"
 "http://www.w3.org/Graphics/SVG/1.1/DTD/svg11.dtd">
<!-- Generated by graphviz version 2.42.3 (20191010.1750)
 -->
<!-- Title: %3 Pages: 1 -->
<svg width="294pt" height="308pt"
 viewBox="0.00 0.00 293.59 308.00" xmlns="http://www.w3.org/2000/svg" xmlns:xlink="http://www.w3.org/1999/xlink">
<g id="graph0" class="graph" transform="scale(1 1) rotate(0) translate(4 304)">
<title>%3</title>
<polygon fill="white" stroke="transparent" points="-4,4 -4,-304 289.59,-304 289.59,4 -4,4"/>
<g id="clust1" class="cluster">
<title>cluster3</title>
<path fill="none" stroke="black" d="M108.55,-90C108.55,-90 180.55,-90 180.55,-90 186.55,-90 192.55,-96 192.55,-102 192.55,-102 192.55,-152 192.55,-152 192.55,-158 186.55,-164 180.55,-164 180.55,-164 108.55,-164 108.55,-164 102.55,-164 96.55,-158 96.55,-152 96.55,-152 96.55,-102 96.55,-102 96.55,-96 102.55,-90 108.55,-90"/>
<text text-anchor="middle" x="181.05" y="-96.8" font-family="Times,serif" font-size="14.00">3</text>
</g>
<g id="clust2" class="cluster">
<title>cluster90</title>
<path fill="none" stroke="black" d="M91.55,-8C91.55,-8 197.55,-8 197.55,-8 203.55,-8 209.55,-14 209.55,-20 209.55,-20 209.55,-70 209.55,-70 209.55,-76 203.55,-82 197.55,-82 197.55,-82 91.55,-82 91.55,-82 85.55,-82 79.55,-76 79.55,-70 79.55,-70 79.55,-20 79.55,-20 79.55,-14 85.55,-8 91.55,-8"/>
<text text-anchor="middle" x="194.55" y="-14.8" font-family="Times,serif" font-size="14.00">90</text>
</g>
<!-- κ -->
<g id="node1" class="node">
<title>κ</title>
<ellipse fill="none" stroke="black" cx="81.55" cy="-282" rx="66.92" ry="18"/>
<text text-anchor="middle" x="81.55" y="-277.8" font-family="Times,serif" font-size="14.00">κ ~ HalfNormal</text>
</g>
<!-- alpha -->
<g id="node2" class="node">
<title>alpha</title>
<polygon fill="none" stroke="black" points="137.14,-228 -0.05,-228 -0.05,-192 137.14,-192 137.14,-228"/>
<text text-anchor="middle" x="68.55" y="-205.8" font-family="Times,serif" font-size="14.00">alpha ~ Deterministic</text>
</g>
<!-- κ&#45;&gt;alpha -->
<g id="edge1" class="edge">
<title>κ&#45;&gt;alpha</title>
<path fill="none" stroke="black" d="M78.33,-263.7C76.9,-255.98 75.18,-246.71 73.58,-238.11"/>
<polygon fill="black" stroke="black" points="76.99,-237.3 71.72,-228.1 70.11,-238.58 76.99,-237.3"/>
</g>
<!-- beta -->
<g id="node3" class="node">
<title>beta</title>
<polygon fill="none" stroke="black" points="285.64,-228 155.45,-228 155.45,-192 285.64,-192 285.64,-228"/>
<text text-anchor="middle" x="220.55" y="-205.8" font-family="Times,serif" font-size="14.00">beta ~ Deterministic</text>
</g>
<!-- κ&#45;&gt;beta -->
<g id="edge3" class="edge">
<title>κ&#45;&gt;beta</title>
<path fill="none" stroke="black" d="M111.71,-265.81C130.9,-256.14 156.07,-243.47 177.37,-232.74"/>
<polygon fill="black" stroke="black" points="179.18,-235.75 186.54,-228.13 176.03,-229.5 179.18,-235.75"/>
</g>
<!-- θ -->
<g id="node5" class="node">
<title>θ</title>
<ellipse fill="none" stroke="black" cx="144.55" cy="-138" rx="40.37" ry="18"/>
<text text-anchor="middle" x="144.55" y="-133.8" font-family="Times,serif" font-size="14.00">θ ~ Beta</text>
</g>
<!-- alpha&#45;&gt;θ -->
<g id="edge6" class="edge">
<title>alpha&#45;&gt;θ</title>
<path fill="none" stroke="black" d="M87.33,-191.7C97.31,-182.51 109.68,-171.11 120.36,-161.27"/>
<polygon fill="black" stroke="black" points="122.8,-163.79 127.79,-154.44 118.06,-158.64 122.8,-163.79"/>
</g>
<!-- beta&#45;&gt;θ -->
<g id="edge5" class="edge">
<title>beta&#45;&gt;θ</title>
<path fill="none" stroke="black" d="M201.76,-191.7C191.78,-182.51 179.41,-171.11 168.73,-161.27"/>
<polygon fill="black" stroke="black" points="171.03,-158.64 161.31,-154.44 166.29,-163.79 171.03,-158.64"/>
</g>
<!-- μ -->
<g id="node4" class="node">
<title>μ</title>
<ellipse fill="none" stroke="black" cx="213.55" cy="-282" rx="40.37" ry="18"/>
<text text-anchor="middle" x="213.55" y="-277.8" font-family="Times,serif" font-size="14.00">μ ~ Beta</text>
</g>
<!-- μ&#45;&gt;alpha -->
<g id="edge2" class="edge">
<title>μ&#45;&gt;alpha</title>
<path fill="none" stroke="black" d="M186.95,-268.16C166.38,-258.23 137.43,-244.26 113.31,-232.61"/>
<polygon fill="black" stroke="black" points="114.52,-229.31 103.99,-228.11 111.47,-235.61 114.52,-229.31"/>
</g>
<!-- μ&#45;&gt;beta -->
<g id="edge4" class="edge">
<title>μ&#45;&gt;beta</title>
<path fill="none" stroke="black" d="M215.28,-263.7C216.05,-255.98 216.97,-246.71 217.83,-238.11"/>
<polygon fill="black" stroke="black" points="221.32,-238.4 218.84,-228.1 214.36,-237.71 221.32,-238.4"/>
</g>
<!-- y -->
<g id="node6" class="node">
<title>y</title>
<ellipse fill="lightgrey" stroke="black" cx="144.55" cy="-56" rx="57.28" ry="18"/>
<text text-anchor="middle" x="144.55" y="-51.8" font-family="Times,serif" font-size="14.00">y ~ Bernoulli</text>
</g>
<!-- θ&#45;&gt;y -->
<g id="edge7" class="edge">
<title>θ&#45;&gt;y</title>
<path fill="none" stroke="black" d="M144.55,-119.64C144.55,-109.3 144.55,-95.94 144.55,-84.22"/>
<polygon fill="black" stroke="black" points="148.05,-84.05 144.55,-74.05 141.05,-84.05 148.05,-84.05"/>
</g>
</g>
</svg>
