<?xml version="1.0" encoding="UTF-8" standalone="no"?>
<!DOCTYPE svg PUBLIC "-//W3C//DTD SVG 1.1//EN"
 "http://www.w3.org/Graphics/SVG/1.1/DTD/svg11.dtd">
<!-- Generated by graphviz version 2.40.1 (20161225.0304)
 -->
<!-- Title: %3 Pages: 1 -->
<svg width="232pt" height="322pt"
 viewBox="0.00 0.00 231.50 321.91" xmlns="http://www.w3.org/2000/svg" xmlns:xlink="http://www.w3.org/1999/xlink">
<g id="graph0" class="graph" transform="scale(1 1) rotate(0) translate(4 317.9066)">
<title>%3</title>
<polygon fill="#ffffff" stroke="transparent" points="-4,4 -4,-317.9066 227.5,-317.9066 227.5,4 -4,4"/>
<g id="clust1" class="cluster">
<title>cluster100</title>
<path fill="none" stroke="#000000" d="M113.5,-8C113.5,-8 203.5,-8 203.5,-8 209.5,-8 215.5,-14 215.5,-20 215.5,-20 215.5,-198.9533 215.5,-198.9533 215.5,-204.9533 209.5,-210.9533 203.5,-210.9533 203.5,-210.9533 113.5,-210.9533 113.5,-210.9533 107.5,-210.9533 101.5,-204.9533 101.5,-198.9533 101.5,-198.9533 101.5,-20 101.5,-20 101.5,-14 107.5,-8 113.5,-8"/>
<text text-anchor="middle" x="196.5" y="-15.8" font-family="Times,serif" font-size="14.00" fill="#000000">100</text>
</g>
<!-- α -->
<g id="node1" class="node">
<title>α</title>
<ellipse fill="none" stroke="#000000" cx="51.5" cy="-276.43" rx="41.9398" ry="37.4533"/>
<text text-anchor="middle" x="51.5" y="-287.73" font-family="Times,serif" font-size="14.00" fill="#000000">α</text>
<text text-anchor="middle" x="51.5" y="-272.73" font-family="Times,serif" font-size="14.00" fill="#000000">~</text>
<text text-anchor="middle" x="51.5" y="-257.73" font-family="Times,serif" font-size="14.00" fill="#000000">Normal</text>
</g>
<!-- bd -->
<g id="node2" class="node">
<title>bd</title>
<polygon fill="none" stroke="#000000" points="93,-202.9533 0,-202.9533 0,-149.9533 93,-149.9533 93,-202.9533"/>
<text text-anchor="middle" x="46.5" y="-187.7533" font-family="Times,serif" font-size="14.00" fill="#000000">bd</text>
<text text-anchor="middle" x="46.5" y="-172.7533" font-family="Times,serif" font-size="14.00" fill="#000000">~</text>
<text text-anchor="middle" x="46.5" y="-157.7533" font-family="Times,serif" font-size="14.00" fill="#000000">Deterministic</text>
</g>
<!-- α&#45;&gt;bd -->
<g id="edge3" class="edge">
<title>α&#45;&gt;bd</title>
<path fill="none" stroke="#000000" d="M49.624,-238.9179C49.207,-230.5808 48.7653,-221.749 48.3494,-213.4334"/>
<polygon fill="#000000" stroke="#000000" points="51.8355,-213.0651 47.8403,-203.2524 44.8442,-213.4148 51.8355,-213.0651"/>
</g>
<!-- θ -->
<g id="node5" class="node">
<title>θ</title>
<polygon fill="none" stroke="#000000" points="204,-202.9533 111,-202.9533 111,-149.9533 204,-149.9533 204,-202.9533"/>
<text text-anchor="middle" x="157.5" y="-187.7533" font-family="Times,serif" font-size="14.00" fill="#000000">θ</text>
<text text-anchor="middle" x="157.5" y="-172.7533" font-family="Times,serif" font-size="14.00" fill="#000000">~</text>
<text text-anchor="middle" x="157.5" y="-157.7533" font-family="Times,serif" font-size="14.00" fill="#000000">Deterministic</text>
</g>
<!-- α&#45;&gt;θ -->
<g id="edge1" class="edge">
<title>α&#45;&gt;θ</title>
<path fill="none" stroke="#000000" d="M80.465,-249.1109C93.2916,-237.0131 108.501,-222.668 122.0032,-209.9331"/>
<polygon fill="#000000" stroke="#000000" points="124.4295,-212.4559 129.3027,-203.0483 119.6265,-207.3635 124.4295,-212.4559"/>
</g>
<!-- β -->
<g id="node3" class="node">
<title>β</title>
<ellipse fill="none" stroke="#000000" cx="154.5" cy="-276.43" rx="41.9398" ry="37.4533"/>
<text text-anchor="middle" x="154.5" y="-287.73" font-family="Times,serif" font-size="14.00" fill="#000000">β</text>
<text text-anchor="middle" x="154.5" y="-272.73" font-family="Times,serif" font-size="14.00" fill="#000000">~</text>
<text text-anchor="middle" x="154.5" y="-257.73" font-family="Times,serif" font-size="14.00" fill="#000000">Normal</text>
</g>
<!-- β&#45;&gt;bd -->
<g id="edge4" class="edge">
<title>β&#45;&gt;bd</title>
<path fill="none" stroke="#000000" d="M125.2736,-249.3749C112.2018,-237.2741 96.6572,-222.8843 82.8444,-210.0977"/>
<polygon fill="#000000" stroke="#000000" points="85.0916,-207.4085 75.3755,-203.1836 80.3363,-212.5453 85.0916,-207.4085"/>
</g>
<!-- β&#45;&gt;θ -->
<g id="edge2" class="edge">
<title>β&#45;&gt;θ</title>
<path fill="none" stroke="#000000" d="M155.6256,-238.9179C155.8758,-230.5808 156.1408,-221.749 156.3903,-213.4334"/>
<polygon fill="#000000" stroke="#000000" points="159.8942,-213.3529 156.6958,-203.2524 152.8974,-213.1429 159.8942,-213.3529"/>
</g>
<!-- yl -->
<g id="node4" class="node">
<title>yl</title>
<ellipse fill="#d3d3d3" stroke="#000000" cx="158.5" cy="-76.4767" rx="48.5816" ry="37.4533"/>
<text text-anchor="middle" x="158.5" y="-87.7767" font-family="Times,serif" font-size="14.00" fill="#000000">yl</text>
<text text-anchor="middle" x="158.5" y="-72.7767" font-family="Times,serif" font-size="14.00" fill="#000000">~</text>
<text text-anchor="middle" x="158.5" y="-57.7767" font-family="Times,serif" font-size="14.00" fill="#000000">Bernoulli</text>
</g>
<!-- θ&#45;&gt;yl -->
<g id="edge5" class="edge">
<title>θ&#45;&gt;yl</title>
<path fill="none" stroke="#000000" d="M157.7654,-149.9239C157.8444,-142.0239 157.9335,-133.113 158.0217,-124.2925"/>
<polygon fill="#000000" stroke="#000000" points="161.5239,-124.08 158.1242,-114.0454 154.5243,-124.0099 161.5239,-124.08"/>
</g>
</g>
</svg>
