<?xml version="1.0" encoding="UTF-8" standalone="no"?>
<!DOCTYPE svg PUBLIC "-//W3C//DTD SVG 1.1//EN"
 "http://www.w3.org/Graphics/SVG/1.1/DTD/svg11.dtd">
<!-- Generated by graphviz version 2.42.3 (20191010.1750)
 -->
<!-- Title: %3 Pages: 1 -->
<svg width="293pt" height="252pt"
 viewBox="0.00 0.00 293.00 252.00" xmlns="http://www.w3.org/2000/svg" xmlns:xlink="http://www.w3.org/1999/xlink">
<g id="graph0" class="graph" transform="scale(1 1) rotate(0) translate(4 248)">
<title>%3</title>
<polygon fill="white" stroke="transparent" points="-4,4 -4,-248 289,-248 289,4 -4,4"/>
<g id="clust1" class="cluster">
<title>cluster2</title>
<path fill="none" stroke="black" d="M161,-162C161,-162 255,-162 255,-162 261,-162 267,-168 267,-174 267,-174 267,-224 267,-224 267,-230 261,-236 255,-236 255,-236 161,-236 161,-236 155,-236 149,-230 149,-224 149,-224 149,-174 149,-174 149,-168 155,-162 161,-162"/>
<text text-anchor="middle" x="255.5" y="-168.8" font-family="Times,serif" font-size="14.00">2</text>
</g>
<g id="clust2" class="cluster">
<title>cluster100</title>
<path fill="none" stroke="black" d="M20,-8C20,-8 265,-8 265,-8 271,-8 277,-14 277,-20 277,-20 277,-142 277,-142 277,-148 271,-154 265,-154 265,-154 20,-154 20,-154 14,-154 8,-148 8,-142 8,-142 8,-20 8,-20 8,-14 14,-8 20,-8"/>
<text text-anchor="middle" x="258.5" y="-14.8" font-family="Times,serif" font-size="14.00">100</text>
</g>
<!-- α -->
<g id="node1" class="node">
<title>α</title>
<ellipse fill="none" stroke="black" cx="80" cy="-210" rx="51.96" ry="18"/>
<text text-anchor="middle" x="80" y="-205.8" font-family="Times,serif" font-size="14.00">α ~ Normal</text>
</g>
<!-- θ -->
<g id="node3" class="node">
<title>θ</title>
<polygon fill="none" stroke="black" points="269.06,-146 154.94,-146 154.94,-110 269.06,-110 269.06,-146"/>
<text text-anchor="middle" x="212" y="-123.8" font-family="Times,serif" font-size="14.00">θ ~ Deterministic</text>
</g>
<!-- α&#45;&gt;θ -->
<g id="edge2" class="edge">
<title>α&#45;&gt;θ</title>
<path fill="none" stroke="black" d="M99.89,-193.27C112.46,-183.68 129.25,-171.48 145,-162 151.42,-158.14 158.35,-154.34 165.23,-150.77"/>
<polygon fill="black" stroke="black" points="167.2,-153.7 174.54,-146.07 164.04,-147.45 167.2,-153.7"/>
</g>
<!-- bd -->
<g id="node5" class="node">
<title>bd</title>
<polygon fill="none" stroke="black" points="136.27,-146 15.73,-146 15.73,-110 136.27,-110 136.27,-146"/>
<text text-anchor="middle" x="76" y="-123.8" font-family="Times,serif" font-size="14.00">bd ~ Deterministic</text>
</g>
<!-- α&#45;&gt;bd -->
<g id="edge4" class="edge">
<title>α&#45;&gt;bd</title>
<path fill="none" stroke="black" d="M79.13,-191.64C78.61,-181.3 77.95,-167.94 77.36,-156.22"/>
<polygon fill="black" stroke="black" points="80.85,-155.86 76.85,-146.05 73.86,-156.21 80.85,-155.86"/>
</g>
<!-- β -->
<g id="node2" class="node">
<title>β</title>
<ellipse fill="none" stroke="black" cx="208" cy="-210" rx="51.49" ry="18"/>
<text text-anchor="middle" x="208" y="-205.8" font-family="Times,serif" font-size="14.00">β ~ Normal</text>
</g>
<!-- β&#45;&gt;θ -->
<g id="edge1" class="edge">
<title>β&#45;&gt;θ</title>
<path fill="none" stroke="black" d="M208.87,-191.64C209.39,-181.3 210.05,-167.94 210.64,-156.22"/>
<polygon fill="black" stroke="black" points="214.14,-156.21 211.15,-146.05 207.15,-155.86 214.14,-156.21"/>
</g>
<!-- β&#45;&gt;bd -->
<g id="edge3" class="edge">
<title>β&#45;&gt;bd</title>
<path fill="none" stroke="black" d="M187.39,-193.4C174.39,-183.85 157.08,-171.65 141,-162 134.66,-158.19 127.83,-154.4 121.06,-150.82"/>
<polygon fill="black" stroke="black" points="122.41,-147.58 111.92,-146.09 119.19,-153.8 122.41,-147.58"/>
</g>
<!-- yl -->
<g id="node4" class="node">
<title>yl</title>
<ellipse fill="lightgrey" stroke="black" cx="209" cy="-56" rx="59.69" ry="18"/>
<text text-anchor="middle" x="209" y="-51.8" font-family="Times,serif" font-size="14.00">yl ~ Bernoulli</text>
</g>
<!-- θ&#45;&gt;yl -->
<g id="edge5" class="edge">
<title>θ&#45;&gt;yl</title>
<path fill="none" stroke="black" d="M211.26,-109.7C210.93,-101.98 210.53,-92.71 210.16,-84.11"/>
<polygon fill="black" stroke="black" points="213.66,-83.95 209.73,-74.1 206.66,-84.25 213.66,-83.95"/>
</g>
</g>
</svg>
