<?xml version="1.0" encoding="UTF-8" standalone="no"?>
<!DOCTYPE svg PUBLIC "-//W3C//DTD SVG 1.1//EN"
 "http://www.w3.org/Graphics/SVG/1.1/DTD/svg11.dtd">
<!-- Generated by graphviz version 2.42.3 (20191010.1750)
 -->
<!-- Title: %3 Pages: 1 -->
<svg width="240pt" height="236pt"
 viewBox="0.00 0.00 240.40 236.00" xmlns="http://www.w3.org/2000/svg" xmlns:xlink="http://www.w3.org/1999/xlink">
<g id="graph0" class="graph" transform="scale(1 1) rotate(0) translate(4 232)">
<title>%3</title>
<polygon fill="white" stroke="transparent" points="-4,4 -4,-232 236.4,-232 236.4,4 -4,4"/>
<g id="clust1" class="cluster">
<title>cluster3</title>
<path fill="none" stroke="black" d="M92.96,-90C92.96,-90 164.96,-90 164.96,-90 170.96,-90 176.96,-96 176.96,-102 176.96,-102 176.96,-152 176.96,-152 176.96,-158 170.96,-164 164.96,-164 164.96,-164 92.96,-164 92.96,-164 86.96,-164 80.96,-158 80.96,-152 80.96,-152 80.96,-102 80.96,-102 80.96,-96 86.96,-90 92.96,-90"/>
<text text-anchor="middle" x="165.46" y="-96.8" font-family="Times,serif" font-size="14.00">3</text>
</g>
<g id="clust2" class="cluster">
<title>cluster90</title>
<path fill="none" stroke="black" d="M75.96,-8C75.96,-8 181.96,-8 181.96,-8 187.96,-8 193.96,-14 193.96,-20 193.96,-20 193.96,-70 193.96,-70 193.96,-76 187.96,-82 181.96,-82 181.96,-82 75.96,-82 75.96,-82 69.96,-82 63.96,-76 63.96,-70 63.96,-70 63.96,-20 63.96,-20 63.96,-14 69.96,-8 75.96,-8"/>
<text text-anchor="middle" x="178.96" y="-14.8" font-family="Times,serif" font-size="14.00">90</text>
</g>
<!-- κ -->
<g id="node1" class="node">
<title>κ</title>
<ellipse fill="none" stroke="black" cx="66.96" cy="-210" rx="66.92" ry="18"/>
<text text-anchor="middle" x="66.96" y="-205.8" font-family="Times,serif" font-size="14.00">κ ~ HalfNormal</text>
</g>
<!-- θ -->
<g id="node3" class="node">
<title>θ</title>
<ellipse fill="none" stroke="black" cx="128.96" cy="-138" rx="40.37" ry="18"/>
<text text-anchor="middle" x="128.96" y="-133.8" font-family="Times,serif" font-size="14.00">θ ~ Beta</text>
</g>
<!-- κ&#45;&gt;θ -->
<g id="edge1" class="edge">
<title>κ&#45;&gt;θ</title>
<path fill="none" stroke="black" d="M81.65,-192.41C89.56,-183.48 99.46,-172.31 108.15,-162.5"/>
<polygon fill="black" stroke="black" points="110.79,-164.79 114.8,-154.99 105.55,-160.15 110.79,-164.79"/>
</g>
<!-- μ -->
<g id="node2" class="node">
<title>μ</title>
<ellipse fill="none" stroke="black" cx="191.96" cy="-210" rx="40.37" ry="18"/>
<text text-anchor="middle" x="191.96" y="-205.8" font-family="Times,serif" font-size="14.00">μ ~ Beta</text>
</g>
<!-- μ&#45;&gt;θ -->
<g id="edge2" class="edge">
<title>μ&#45;&gt;θ</title>
<path fill="none" stroke="black" d="M177.66,-193.12C169.64,-184.2 159.47,-172.91 150.51,-162.94"/>
<polygon fill="black" stroke="black" points="152.93,-160.4 143.64,-155.31 147.72,-165.08 152.93,-160.4"/>
</g>
<!-- y -->
<g id="node4" class="node">
<title>y</title>
<ellipse fill="lightgrey" stroke="black" cx="128.96" cy="-56" rx="57.28" ry="18"/>
<text text-anchor="middle" x="128.96" y="-51.8" font-family="Times,serif" font-size="14.00">y ~ Bernoulli</text>
</g>
<!-- θ&#45;&gt;y -->
<g id="edge3" class="edge">
<title>θ&#45;&gt;y</title>
<path fill="none" stroke="black" d="M128.96,-119.64C128.96,-109.3 128.96,-95.94 128.96,-84.22"/>
<polygon fill="black" stroke="black" points="132.46,-84.05 128.96,-74.05 125.46,-84.05 132.46,-84.05"/>
</g>
</g>
</svg>
