<?xml version="1.0" encoding="UTF-8" standalone="no"?>
<!DOCTYPE svg PUBLIC "-//W3C//DTD SVG 1.1//EN"
 "http://www.w3.org/Graphics/SVG/1.1/DTD/svg11.dtd">
<!-- Generated by graphviz version 2.40.1 (20161225.0304)
 -->
<!-- Title: %3 Pages: 1 -->
<svg width="346pt" height="260pt"
 viewBox="0.00 0.00 345.72 259.91" xmlns="http://www.w3.org/2000/svg" xmlns:xlink="http://www.w3.org/1999/xlink">
<g id="graph0" class="graph" transform="scale(1 1) rotate(0) translate(4 255.9066)">
<title>%3</title>
<polygon fill="#ffffff" stroke="transparent" points="-4,4 -4,-255.9066 341.7193,-255.9066 341.7193,4 -4,4"/>
<g id="clust1" class="cluster">
<title>cluster2</title>
<path fill="none" stroke="#000000" d="M241.7193,-129.9533C241.7193,-129.9533 317.7193,-129.9533 317.7193,-129.9533 323.7193,-129.9533 329.7193,-135.9533 329.7193,-141.9533 329.7193,-141.9533 329.7193,-231.9066 329.7193,-231.9066 329.7193,-237.9066 323.7193,-243.9066 317.7193,-243.9066 317.7193,-243.9066 241.7193,-243.9066 241.7193,-243.9066 235.7193,-243.9066 229.7193,-237.9066 229.7193,-231.9066 229.7193,-231.9066 229.7193,-141.9533 229.7193,-141.9533 229.7193,-135.9533 235.7193,-129.9533 241.7193,-129.9533"/>
<text text-anchor="middle" x="317.7193" y="-137.7533" font-family="Times,serif" font-size="14.00" fill="#000000">2</text>
</g>
<g id="clust2" class="cluster">
<title>cluster100</title>
<path fill="none" stroke="#000000" d="M122.7193,-8C122.7193,-8 198.7193,-8 198.7193,-8 204.7193,-8 210.7193,-14 210.7193,-20 210.7193,-20 210.7193,-109.9533 210.7193,-109.9533 210.7193,-115.9533 204.7193,-121.9533 198.7193,-121.9533 198.7193,-121.9533 122.7193,-121.9533 122.7193,-121.9533 116.7193,-121.9533 110.7193,-115.9533 110.7193,-109.9533 110.7193,-109.9533 110.7193,-20 110.7193,-20 110.7193,-14 116.7193,-8 122.7193,-8"/>
<text text-anchor="middle" x="191.7193" y="-15.8" font-family="Times,serif" font-size="14.00" fill="#000000">100</text>
</g>
<!-- alpha -->
<g id="node1" class="node">
<title>alpha</title>
<ellipse fill="none" stroke="#000000" cx="41.7193" cy="-198.43" rx="41.9398" ry="37.4533"/>
<text text-anchor="middle" x="41.7193" y="-209.73" font-family="Times,serif" font-size="14.00" fill="#000000">alpha</text>
<text text-anchor="middle" x="41.7193" y="-194.73" font-family="Times,serif" font-size="14.00" fill="#000000">~</text>
<text text-anchor="middle" x="41.7193" y="-179.73" font-family="Times,serif" font-size="14.00" fill="#000000">Normal</text>
</g>
<!-- Y_obs -->
<g id="node4" class="node">
<title>Y_obs</title>
<ellipse fill="#d3d3d3" stroke="#000000" cx="160.7193" cy="-76.4767" rx="41.9398" ry="37.4533"/>
<text text-anchor="middle" x="160.7193" y="-87.7767" font-family="Times,serif" font-size="14.00" fill="#000000">Y_obs</text>
<text text-anchor="middle" x="160.7193" y="-72.7767" font-family="Times,serif" font-size="14.00" fill="#000000">~</text>
<text text-anchor="middle" x="160.7193" y="-57.7767" font-family="Times,serif" font-size="14.00" fill="#000000">Normal</text>
</g>
<!-- alpha&#45;&gt;Y_obs -->
<g id="edge2" class="edge">
<title>alpha&#45;&gt;Y_obs</title>
<path fill="none" stroke="#000000" d="M63.179,-166.0081C71.7292,-154.1113 82.0659,-140.8902 92.7193,-129.9533 100.9057,-121.5491 110.4277,-113.2945 119.708,-105.8808"/>
<polygon fill="#000000" stroke="#000000" points="122.0288,-108.5094 127.7615,-99.5995 117.7238,-102.9897 122.0288,-108.5094"/>
</g>
<!-- sigma -->
<g id="node2" class="node">
<title>sigma</title>
<ellipse fill="none" stroke="#000000" cx="160.7193" cy="-198.43" rx="59.2941" ry="37.4533"/>
<text text-anchor="middle" x="160.7193" y="-209.73" font-family="Times,serif" font-size="14.00" fill="#000000">sigma</text>
<text text-anchor="middle" x="160.7193" y="-194.73" font-family="Times,serif" font-size="14.00" fill="#000000">~</text>
<text text-anchor="middle" x="160.7193" y="-179.73" font-family="Times,serif" font-size="14.00" fill="#000000">HalfNormal</text>
</g>
<!-- sigma&#45;&gt;Y_obs -->
<g id="edge3" class="edge">
<title>sigma&#45;&gt;Y_obs</title>
<path fill="none" stroke="#000000" d="M160.7193,-160.8449C160.7193,-149.2534 160.7193,-136.3328 160.7193,-124.1558"/>
<polygon fill="#000000" stroke="#000000" points="164.2194,-124.1476 160.7193,-114.1476 157.2194,-124.1476 164.2194,-124.1476"/>
</g>
<!-- beta -->
<g id="node3" class="node">
<title>beta</title>
<ellipse fill="none" stroke="#000000" cx="279.7193" cy="-198.43" rx="41.9398" ry="37.4533"/>
<text text-anchor="middle" x="279.7193" y="-209.73" font-family="Times,serif" font-size="14.00" fill="#000000">beta</text>
<text text-anchor="middle" x="279.7193" y="-194.73" font-family="Times,serif" font-size="14.00" fill="#000000">~</text>
<text text-anchor="middle" x="279.7193" y="-179.73" font-family="Times,serif" font-size="14.00" fill="#000000">Normal</text>
</g>
<!-- beta&#45;&gt;Y_obs -->
<g id="edge1" class="edge">
<title>beta&#45;&gt;Y_obs</title>
<path fill="none" stroke="#000000" d="M258.2596,-166.0081C249.7094,-154.1113 239.3727,-140.8902 228.7193,-129.9533 220.5329,-121.5491 211.0109,-113.2945 201.7306,-105.8808"/>
<polygon fill="#000000" stroke="#000000" points="203.7148,-102.9897 193.6771,-99.5995 199.4098,-108.5094 203.7148,-102.9897"/>
</g>
</g>
</svg>
