<?xml version="1.0" encoding="UTF-8" standalone="no"?>
<!DOCTYPE svg PUBLIC "-//W3C//DTD SVG 1.1//EN"
 "http://www.w3.org/Graphics/SVG/1.1/DTD/svg11.dtd">
<!-- Generated by graphviz version 2.42.3 (20191010.1750)
 -->
<!-- Title: %3 Pages: 1 -->
<svg width="916pt" height="226pt"
 viewBox="0.00 0.00 915.71 226.00" xmlns="http://www.w3.org/2000/svg" xmlns:xlink="http://www.w3.org/1999/xlink">
<g id="graph0" class="graph" transform="scale(1 1) rotate(0) translate(4 222)">
<title>%3</title>
<polygon fill="white" stroke="transparent" points="-4,4 -4,-222 911.71,-222 911.71,4 -4,4"/>
<g id="clust1" class="cluster">
<title>cluster8</title>
<path fill="none" stroke="black" d="M473.47,-8C473.47,-8 725.47,-8 725.47,-8 731.47,-8 737.47,-14 737.47,-20 737.47,-20 737.47,-142 737.47,-142 737.47,-148 731.47,-154 725.47,-154 725.47,-154 473.47,-154 473.47,-154 467.47,-154 461.47,-148 461.47,-142 461.47,-142 461.47,-20 461.47,-20 461.47,-14 467.47,-8 473.47,-8"/>
<text text-anchor="middle" x="725.97" y="-14.8" font-family="Times,serif" font-size="14.00">8</text>
</g>
<g id="clust2" class="cluster">
<title>cluster141</title>
<path fill="none" stroke="black" d="M224.47,-8C224.47,-8 368.47,-8 368.47,-8 374.47,-8 380.47,-14 380.47,-20 380.47,-20 380.47,-70 380.47,-70 380.47,-76 374.47,-82 368.47,-82 368.47,-82 224.47,-82 224.47,-82 218.47,-82 212.47,-76 212.47,-70 212.47,-70 212.47,-20 212.47,-20 212.47,-14 218.47,-8 224.47,-8"/>
<text text-anchor="middle" x="361.97" y="-14.8" font-family="Times,serif" font-size="14.00">141</text>
</g>
<!-- ϵ -->
<g id="node1" class="node">
<title>ϵ</title>
<ellipse fill="none" stroke="black" cx="224.47" cy="-128" rx="73.45" ry="18"/>
<text text-anchor="middle" x="224.47" y="-125.32" font-family="Times,serif" font-size="14.00">ϵ ~ HalfCauchy</text>
</g>
<!-- y_pred -->
<g id="node12" class="node">
<title>y_pred</title>
<ellipse fill="lightgrey" stroke="black" cx="296.47" cy="-56" rx="76.09" ry="18"/>
<text text-anchor="middle" x="296.47" y="-51.8" font-family="Times,serif" font-size="14.00">y_pred ~ StudentT</text>
</g>
<!-- ϵ&#45;&gt;y_pred -->
<g id="edge5" class="edge">
<title>ϵ&#45;&gt;y_pred</title>
<path fill="none" stroke="black" d="M241.53,-110.41C250.54,-101.65 261.77,-90.73 271.72,-81.06"/>
<polygon fill="black" stroke="black" points="274.3,-83.44 279.03,-73.96 269.42,-78.42 274.3,-83.44"/>
</g>
<!-- α_μ -->
<g id="node2" class="node">
<title>α_μ</title>
<polygon fill="none" stroke="black" points="887.58,-146 757.35,-146 757.35,-110 887.58,-110 887.58,-146"/>
<text text-anchor="middle" x="822.47" y="-123.8" font-family="Times,serif" font-size="14.00">α_μ ~ Deterministic</text>
</g>
<!-- α_σ_tmp -->
<g id="node3" class="node">
<title>α_σ_tmp</title>
<ellipse fill="none" stroke="black" cx="326.47" cy="-200" rx="94.92" ry="18"/>
<text text-anchor="middle" x="326.47" y="-195.8" font-family="Times,serif" font-size="14.00">α_σ_tmp ~ HalfNormal</text>
</g>
<!-- α_sd -->
<g id="node4" class="node">
<title>α_sd</title>
<polygon fill="none" stroke="black" points="450.74,-146 316.19,-146 316.19,-110 450.74,-110 450.74,-146"/>
<text text-anchor="middle" x="383.47" y="-123.8" font-family="Times,serif" font-size="14.00">α_sd ~ Deterministic</text>
</g>
<!-- α_σ_tmp&#45;&gt;α_sd -->
<g id="edge13" class="edge">
<title>α_σ_tmp&#45;&gt;α_sd</title>
<path fill="none" stroke="black" d="M340.26,-182.05C347.09,-173.67 355.47,-163.38 363.03,-154.1"/>
<polygon fill="black" stroke="black" points="365.8,-156.24 369.4,-146.28 360.37,-151.82 365.8,-156.24"/>
</g>
<!-- α_tmp -->
<g id="node10" class="node">
<title>α_tmp</title>
<ellipse fill="none" stroke="black" cx="659.47" cy="-128" rx="69.82" ry="18"/>
<text text-anchor="middle" x="659.47" y="-123.8" font-family="Times,serif" font-size="14.00">α_tmp ~ Normal</text>
</g>
<!-- α_σ_tmp&#45;&gt;α_tmp -->
<g id="edge1" class="edge">
<title>α_σ_tmp&#45;&gt;α_tmp</title>
<path fill="none" stroke="black" d="M396.03,-187.73C458.81,-177.36 546.38,-162.37 580.47,-154 589.9,-151.68 599.86,-148.85 609.4,-145.93"/>
<polygon fill="black" stroke="black" points="610.66,-149.2 619.16,-142.88 608.57,-142.52 610.66,-149.2"/>
</g>
<!-- α_μ_tmp -->
<g id="node5" class="node">
<title>α_μ_tmp</title>
<ellipse fill="none" stroke="black" cx="828.47" cy="-200" rx="79.5" ry="18"/>
<text text-anchor="middle" x="828.47" y="-195.8" font-family="Times,serif" font-size="14.00">α_μ_tmp ~ Normal</text>
</g>
<!-- α_μ_tmp&#45;&gt;α_μ -->
<g id="edge11" class="edge">
<title>α_μ_tmp&#45;&gt;α_μ</title>
<path fill="none" stroke="black" d="M826.98,-181.7C826.32,-173.98 825.53,-164.71 824.79,-156.11"/>
<polygon fill="black" stroke="black" points="828.27,-155.77 823.93,-146.1 821.3,-156.37 828.27,-155.77"/>
</g>
<!-- α_μ_tmp&#45;&gt;α_tmp -->
<g id="edge2" class="edge">
<title>α_μ_tmp&#45;&gt;α_tmp</title>
<path fill="none" stroke="black" d="M792.21,-183.98C766.44,-173.31 731.68,-158.91 704.19,-147.52"/>
<polygon fill="black" stroke="black" points="705.37,-144.23 694.79,-143.63 702.69,-150.69 705.37,-144.23"/>
</g>
<!-- β_σ -->
<g id="node6" class="node">
<title>β_σ</title>
<ellipse fill="none" stroke="black" cx="515.47" cy="-200" rx="76.1" ry="18"/>
<text text-anchor="middle" x="515.47" y="-195.8" font-family="Times,serif" font-size="14.00">β_σ ~ HalfNormal</text>
</g>
<!-- β -->
<g id="node9" class="node">
<title>β</title>
<ellipse fill="none" stroke="black" cx="520.47" cy="-128" rx="51.49" ry="18"/>
<text text-anchor="middle" x="520.47" y="-123.8" font-family="Times,serif" font-size="14.00">β ~ Normal</text>
</g>
<!-- β_σ&#45;&gt;β -->
<g id="edge3" class="edge">
<title>β_σ&#45;&gt;β</title>
<path fill="none" stroke="black" d="M516.7,-181.7C517.25,-173.98 517.92,-164.71 518.53,-156.11"/>
<polygon fill="black" stroke="black" points="522.02,-156.33 519.24,-146.1 515.04,-155.83 522.02,-156.33"/>
</g>
<!-- ν -->
<g id="node7" class="node">
<title>ν</title>
<ellipse fill="none" stroke="black" cx="66.47" cy="-128" rx="66.43" ry="18"/>
<text text-anchor="middle" x="66.47" y="-123.8" font-family="Times,serif" font-size="14.00">ν ~ Exponential</text>
</g>
<!-- ν&#45;&gt;y_pred -->
<g id="edge8" class="edge">
<title>ν&#45;&gt;y_pred</title>
<path fill="none" stroke="black" d="M108.92,-114.08C146.33,-102.69 201.06,-86.04 241.75,-73.65"/>
<polygon fill="black" stroke="black" points="242.96,-76.94 251.51,-70.68 240.92,-70.25 242.96,-76.94"/>
</g>
<!-- β_μ -->
<g id="node8" class="node">
<title>β_μ</title>
<ellipse fill="none" stroke="black" cx="670.47" cy="-200" rx="60.67" ry="18"/>
<text text-anchor="middle" x="670.47" y="-195.8" font-family="Times,serif" font-size="14.00">β_μ ~ Normal</text>
</g>
<!-- β_μ&#45;&gt;α_μ -->
<g id="edge12" class="edge">
<title>β_μ&#45;&gt;α_μ</title>
<path fill="none" stroke="black" d="M701.96,-184.5C723.38,-174.63 752.08,-161.42 776.1,-150.36"/>
<polygon fill="black" stroke="black" points="777.77,-153.44 785.39,-146.08 774.84,-147.08 777.77,-153.44"/>
</g>
<!-- β_μ&#45;&gt;α_sd -->
<g id="edge14" class="edge">
<title>β_μ&#45;&gt;α_sd</title>
<path fill="none" stroke="black" d="M625.72,-187.82C617.35,-185.81 608.65,-183.79 600.47,-182 537.21,-168.13 520.06,-170.62 457.47,-154 451.93,-152.53 446.2,-150.86 440.49,-149.1"/>
<polygon fill="black" stroke="black" points="441.54,-145.76 430.95,-146.08 439.43,-152.44 441.54,-145.76"/>
</g>
<!-- β_μ&#45;&gt;β -->
<g id="edge4" class="edge">
<title>β_μ&#45;&gt;β</title>
<path fill="none" stroke="black" d="M639.39,-184.5C616.1,-173.63 584.1,-158.69 559.16,-147.06"/>
<polygon fill="black" stroke="black" points="560.52,-143.83 549.98,-142.77 557.56,-150.17 560.52,-143.83"/>
</g>
<!-- α -->
<g id="node11" class="node">
<title>α</title>
<polygon fill="none" stroke="black" points="651.29,-74 535.64,-74 535.64,-38 651.29,-38 651.29,-74"/>
<text text-anchor="middle" x="593.47" y="-51.8" font-family="Times,serif" font-size="14.00">α ~ Deterministic</text>
</g>
<!-- β&#45;&gt;α -->
<g id="edge9" class="edge">
<title>β&#45;&gt;α</title>
<path fill="none" stroke="black" d="M537.4,-110.76C546.53,-102.01 557.98,-91.03 568.14,-81.28"/>
<polygon fill="black" stroke="black" points="570.81,-83.57 575.61,-74.12 565.97,-78.52 570.81,-83.57"/>
</g>
<!-- β&#45;&gt;y_pred -->
<g id="edge6" class="edge">
<title>β&#45;&gt;y_pred</title>
<path fill="none" stroke="black" d="M483.48,-115.44C447.13,-104.08 391.26,-86.62 350.05,-73.74"/>
<polygon fill="black" stroke="black" points="351.03,-70.38 340.44,-70.74 348.94,-77.06 351.03,-70.38"/>
</g>
<!-- α_tmp&#45;&gt;α -->
<g id="edge10" class="edge">
<title>α_tmp&#45;&gt;α</title>
<path fill="none" stroke="black" d="M643.83,-110.41C635.76,-101.86 625.77,-91.26 616.82,-81.77"/>
<polygon fill="black" stroke="black" points="619.32,-79.32 609.92,-74.45 614.23,-84.12 619.32,-79.32"/>
</g>
<!-- α_tmp&#45;&gt;y_pred -->
<g id="edge7" class="edge">
<title>α_tmp&#45;&gt;y_pred</title>
<path fill="none" stroke="black" d="M608.09,-115.73C598.9,-113.78 589.41,-111.8 580.47,-110 507.17,-95.28 422.95,-79.73 365.38,-69.31"/>
<polygon fill="black" stroke="black" points="365.76,-65.83 355.3,-67.49 364.52,-72.72 365.76,-65.83"/>
</g>
</g>
</svg>
