<?xml version="1.0" encoding="UTF-8" standalone="no"?>
<!DOCTYPE svg PUBLIC "-//W3C//DTD SVG 1.1//EN"
 "http://www.w3.org/Graphics/SVG/1.1/DTD/svg11.dtd">
<!-- Generated by graphviz version 2.42.3 (20191010.1750)
 -->
<!-- Title: %3 Pages: 1 -->
<svg width="604pt" height="170pt"
 viewBox="0.00 0.00 604.47 170.00" xmlns="http://www.w3.org/2000/svg" xmlns:xlink="http://www.w3.org/1999/xlink">
<g id="graph0" class="graph" transform="scale(1 1) rotate(0) translate(4 166)">
<title>%3</title>
<polygon fill="white" stroke="transparent" points="-4,4 -4,-166 600.47,-166 600.47,4 -4,4"/>
<g id="clust1" class="cluster">
<title>cluster8</title>
<path fill="none" stroke="black" d="M20,-8C20,-8 272,-8 272,-8 278,-8 284,-14 284,-20 284,-20 284,-142 284,-142 284,-148 278,-154 272,-154 272,-154 20,-154 20,-154 14,-154 8,-148 8,-142 8,-142 8,-20 8,-20 8,-14 14,-8 20,-8"/>
<text text-anchor="middle" x="272.5" y="-14.8" font-family="Times,serif" font-size="14.00">8</text>
</g>
<g id="clust2" class="cluster">
<title>cluster141</title>
<path fill="none" stroke="black" d="M304,-8C304,-8 448,-8 448,-8 454,-8 460,-14 460,-20 460,-20 460,-70 460,-70 460,-76 454,-82 448,-82 448,-82 304,-82 304,-82 298,-82 292,-76 292,-70 292,-70 292,-20 292,-20 292,-14 298,-8 304,-8"/>
<text text-anchor="middle" x="441.5" y="-14.8" font-family="Times,serif" font-size="14.00">141</text>
</g>
<!-- β -->
<g id="node1" class="node">
<title>β</title>
<ellipse fill="none" stroke="black" cx="225" cy="-128" rx="51.49" ry="18"/>
<text text-anchor="middle" x="225" y="-123.8" font-family="Times,serif" font-size="14.00">β ~ Normal</text>
</g>
<!-- α -->
<g id="node3" class="node">
<title>α</title>
<polygon fill="none" stroke="black" points="209.83,-74 94.17,-74 94.17,-38 209.83,-38 209.83,-74"/>
<text text-anchor="middle" x="152" y="-51.8" font-family="Times,serif" font-size="14.00">α ~ Deterministic</text>
</g>
<!-- β&#45;&gt;α -->
<g id="edge5" class="edge">
<title>β&#45;&gt;α</title>
<path fill="none" stroke="black" d="M208.07,-110.76C198.94,-102.01 187.49,-91.03 177.32,-81.28"/>
<polygon fill="black" stroke="black" points="179.5,-78.52 169.86,-74.12 174.65,-83.57 179.5,-78.52"/>
</g>
<!-- y_pred -->
<g id="node6" class="node">
<title>y_pred</title>
<ellipse fill="lightgrey" stroke="black" cx="376" cy="-56" rx="76.09" ry="18"/>
<text text-anchor="middle" x="376" y="-51.8" font-family="Times,serif" font-size="14.00">y_pred ~ StudentT</text>
</g>
<!-- β&#45;&gt;y_pred -->
<g id="edge2" class="edge">
<title>β&#45;&gt;y_pred</title>
<path fill="none" stroke="black" d="M254.83,-113.17C277.39,-102.71 308.66,-88.22 333.79,-76.57"/>
<polygon fill="black" stroke="black" points="335.48,-79.64 343.08,-72.26 332.54,-73.29 335.48,-79.64"/>
</g>
<!-- α_tmp -->
<g id="node2" class="node">
<title>α_tmp</title>
<ellipse fill="none" stroke="black" cx="86" cy="-128" rx="69.82" ry="18"/>
<text text-anchor="middle" x="86" y="-123.8" font-family="Times,serif" font-size="14.00">α_tmp ~ Normal</text>
</g>
<!-- α_tmp&#45;&gt;α -->
<g id="edge6" class="edge">
<title>α_tmp&#45;&gt;α</title>
<path fill="none" stroke="black" d="M101.64,-110.41C109.7,-101.86 119.7,-91.26 128.65,-81.77"/>
<polygon fill="black" stroke="black" points="131.24,-84.12 135.55,-74.45 126.14,-79.32 131.24,-84.12"/>
</g>
<!-- α_tmp&#45;&gt;y_pred -->
<g id="edge3" class="edge">
<title>α_tmp&#45;&gt;y_pred</title>
<path fill="none" stroke="black" d="M137.69,-115.84C187.75,-104.97 260.05,-89.08 288,-82 298.61,-79.31 309.88,-76.26 320.69,-73.24"/>
<polygon fill="black" stroke="black" points="321.79,-76.56 330.46,-70.48 319.89,-69.83 321.79,-76.56"/>
</g>
<!-- ϵ -->
<g id="node4" class="node">
<title>ϵ</title>
<ellipse fill="none" stroke="black" cx="372" cy="-128" rx="73.45" ry="18"/>
<text text-anchor="middle" x="372" y="-125.32" font-family="Times,serif" font-size="14.00">ϵ ~ HalfCauchy</text>
</g>
<!-- ϵ&#45;&gt;y_pred -->
<g id="edge1" class="edge">
<title>ϵ&#45;&gt;y_pred</title>
<path fill="none" stroke="black" d="M372.99,-109.7C373.43,-101.98 373.96,-92.71 374.45,-84.11"/>
<polygon fill="black" stroke="black" points="377.95,-84.29 375.02,-74.1 370.96,-83.89 377.95,-84.29"/>
</g>
<!-- ν -->
<g id="node5" class="node">
<title>ν</title>
<ellipse fill="none" stroke="black" cx="530" cy="-128" rx="66.43" ry="18"/>
<text text-anchor="middle" x="530" y="-123.8" font-family="Times,serif" font-size="14.00">ν ~ Exponential</text>
</g>
<!-- ν&#45;&gt;y_pred -->
<g id="edge4" class="edge">
<title>ν&#45;&gt;y_pred</title>
<path fill="none" stroke="black" d="M497.34,-112.15C474.4,-101.73 443.5,-87.68 418.62,-76.37"/>
<polygon fill="black" stroke="black" points="419.96,-73.14 409.41,-72.19 417.07,-79.51 419.96,-73.14"/>
</g>
</g>
</svg>
