<?xml version="1.0" encoding="UTF-8" standalone="no"?>
<!DOCTYPE svg PUBLIC "-//W3C//DTD SVG 1.1//EN"
 "http://www.w3.org/Graphics/SVG/1.1/DTD/svg11.dtd">
<!-- Generated by graphviz version 2.40.1 (20161225.0304)
 -->
<!-- Title: %3 Pages: 1 -->
<svg width="293pt" height="260pt"
 viewBox="0.00 0.00 293.38 259.91" xmlns="http://www.w3.org/2000/svg" xmlns:xlink="http://www.w3.org/1999/xlink">
<g id="graph0" class="graph" transform="scale(1 1) rotate(0) translate(4 255.9066)">
<title>%3</title>
<polygon fill="#ffffff" stroke="transparent" points="-4,4 -4,-255.9066 289.3762,-255.9066 289.3762,4 -4,4"/>
<g id="clust1" class="cluster">
<title>cluster2</title>
<path fill="none" stroke="#000000" d="M203.3762,-129.9533C203.3762,-129.9533 265.3762,-129.9533 265.3762,-129.9533 271.3762,-129.9533 277.3762,-135.9533 277.3762,-141.9533 277.3762,-141.9533 277.3762,-231.9066 277.3762,-231.9066 277.3762,-237.9066 271.3762,-243.9066 265.3762,-243.9066 265.3762,-243.9066 203.3762,-243.9066 203.3762,-243.9066 197.3762,-243.9066 191.3762,-237.9066 191.3762,-231.9066 191.3762,-231.9066 191.3762,-141.9533 191.3762,-141.9533 191.3762,-135.9533 197.3762,-129.9533 203.3762,-129.9533"/>
<text text-anchor="middle" x="266.3762" y="-137.7533" font-family="Times,serif" font-size="14.00" fill="#000000">2</text>
</g>
<g id="clust2" class="cluster">
<title>cluster100</title>
<path fill="none" stroke="#000000" d="M116.3762,-8C116.3762,-8 178.3762,-8 178.3762,-8 184.3762,-8 190.3762,-14 190.3762,-20 190.3762,-20 190.3762,-109.9533 190.3762,-109.9533 190.3762,-115.9533 184.3762,-121.9533 178.3762,-121.9533 178.3762,-121.9533 116.3762,-121.9533 116.3762,-121.9533 110.3762,-121.9533 104.3762,-115.9533 104.3762,-109.9533 104.3762,-109.9533 104.3762,-20 104.3762,-20 104.3762,-14 110.3762,-8 116.3762,-8"/>
<text text-anchor="middle" x="174.3762" y="-15.8" font-family="Times,serif" font-size="14.00" fill="#000000">100</text>
</g>
<!-- sigma -->
<g id="node1" class="node">
<title>sigma</title>
<ellipse fill="none" stroke="#000000" cx="47.3762" cy="-198.43" rx="47.2526" ry="37.4533"/>
<text text-anchor="middle" x="47.3762" y="-209.73" font-family="Times,serif" font-size="14.00" fill="#000000">sigma</text>
<text text-anchor="middle" x="47.3762" y="-194.73" font-family="Times,serif" font-size="14.00" fill="#000000">~</text>
<text text-anchor="middle" x="47.3762" y="-179.73" font-family="Times,serif" font-size="14.00" fill="#000000">HalfNormal</text>
</g>
<!-- Y_obs -->
<g id="node4" class="node">
<title>Y_obs</title>
<ellipse fill="#d3d3d3" stroke="#000000" cx="147.3762" cy="-76.4767" rx="34.7971" ry="37.4533"/>
<text text-anchor="middle" x="147.3762" y="-87.7767" font-family="Times,serif" font-size="14.00" fill="#000000">Y_obs</text>
<text text-anchor="middle" x="147.3762" y="-72.7767" font-family="Times,serif" font-size="14.00" fill="#000000">~</text>
<text text-anchor="middle" x="147.3762" y="-57.7767" font-family="Times,serif" font-size="14.00" fill="#000000">Normal</text>
</g>
<!-- sigma&#45;&gt;Y_obs -->
<g id="edge1" class="edge">
<title>sigma&#45;&gt;Y_obs</title>
<path fill="none" stroke="#000000" d="M73.2852,-166.7082C82.7471,-155.1342 93.5388,-141.9458 103.3762,-129.9533 108.0417,-124.2656 112.9906,-118.2418 117.8209,-112.3675"/>
<polygon fill="#000000" stroke="#000000" points="120.6467,-114.4417 124.2964,-104.4953 115.2406,-109.9948 120.6467,-114.4417"/>
</g>
<!-- alpha -->
<g id="node2" class="node">
<title>alpha</title>
<ellipse fill="none" stroke="#000000" cx="147.3762" cy="-198.43" rx="34.7971" ry="37.4533"/>
<text text-anchor="middle" x="147.3762" y="-209.73" font-family="Times,serif" font-size="14.00" fill="#000000">alpha</text>
<text text-anchor="middle" x="147.3762" y="-194.73" font-family="Times,serif" font-size="14.00" fill="#000000">~</text>
<text text-anchor="middle" x="147.3762" y="-179.73" font-family="Times,serif" font-size="14.00" fill="#000000">Normal</text>
</g>
<!-- alpha&#45;&gt;Y_obs -->
<g id="edge2" class="edge">
<title>alpha&#45;&gt;Y_obs</title>
<path fill="none" stroke="#000000" d="M147.3762,-160.8449C147.3762,-149.2534 147.3762,-136.3328 147.3762,-124.1558"/>
<polygon fill="#000000" stroke="#000000" points="150.8763,-124.1476 147.3762,-114.1476 143.8763,-124.1476 150.8763,-124.1476"/>
</g>
<!-- beta -->
<g id="node3" class="node">
<title>beta</title>
<ellipse fill="none" stroke="#000000" cx="234.3762" cy="-198.43" rx="34.7971" ry="37.4533"/>
<text text-anchor="middle" x="234.3762" y="-209.73" font-family="Times,serif" font-size="14.00" fill="#000000">beta</text>
<text text-anchor="middle" x="234.3762" y="-194.73" font-family="Times,serif" font-size="14.00" fill="#000000">~</text>
<text text-anchor="middle" x="234.3762" y="-179.73" font-family="Times,serif" font-size="14.00" fill="#000000">Normal</text>
</g>
<!-- beta&#45;&gt;Y_obs -->
<g id="edge3" class="edge">
<title>beta&#45;&gt;Y_obs</title>
<path fill="none" stroke="#000000" d="M215.5056,-166.513C208.2765,-154.7987 199.7493,-141.5686 191.3762,-129.9533 187.0743,-123.9858 182.3152,-117.8159 177.5633,-111.8813"/>
<polygon fill="#000000" stroke="#000000" points="180.1573,-109.5238 171.1313,-103.9756 174.7274,-113.9415 180.1573,-109.5238"/>
</g>
</g>
</svg>
