<?xml version="1.0" encoding="UTF-8" standalone="no"?>
<!DOCTYPE svg PUBLIC "-//W3C//DTD SVG 1.1//EN"
 "http://www.w3.org/Graphics/SVG/1.1/DTD/svg11.dtd">
<!-- Generated by graphviz version 2.40.1 (20161225.0304)
 -->
<!-- Title: %3 Pages: 1 -->
<svg width="204pt" height="355pt"
 viewBox="0.00 0.00 204.10 354.86" xmlns="http://www.w3.org/2000/svg" xmlns:xlink="http://www.w3.org/1999/xlink">
<g id="graph0" class="graph" transform="scale(1 1) rotate(0) translate(4 350.86)">
<title>%3</title>
<polygon fill="#ffffff" stroke="transparent" points="-4,4 -4,-350.86 200.0955,-350.86 200.0955,4 -4,4"/>
<g id="clust1" class="cluster">
<title>cluster3</title>
<path fill="none" stroke="#000000" d="M56.6985,-129.9533C56.6985,-129.9533 108.6985,-129.9533 108.6985,-129.9533 114.6985,-129.9533 120.6985,-135.9533 120.6985,-141.9533 120.6985,-141.9533 120.6985,-231.9066 120.6985,-231.9066 120.6985,-237.9066 114.6985,-243.9066 108.6985,-243.9066 108.6985,-243.9066 56.6985,-243.9066 56.6985,-243.9066 50.6985,-243.9066 44.6985,-237.9066 44.6985,-231.9066 44.6985,-231.9066 44.6985,-141.9533 44.6985,-141.9533 44.6985,-135.9533 50.6985,-129.9533 56.6985,-129.9533"/>
<text text-anchor="middle" x="108.6985" y="-137.7533" font-family="Times,serif" font-size="14.00" fill="#000000">3</text>
</g>
<g id="clust2" class="cluster">
<title>cluster90</title>
<path fill="none" stroke="#000000" d="M37.6985,-8C37.6985,-8 127.6985,-8 127.6985,-8 133.6985,-8 139.6985,-14 139.6985,-20 139.6985,-20 139.6985,-109.9533 139.6985,-109.9533 139.6985,-115.9533 133.6985,-121.9533 127.6985,-121.9533 127.6985,-121.9533 37.6985,-121.9533 37.6985,-121.9533 31.6985,-121.9533 25.6985,-115.9533 25.6985,-109.9533 25.6985,-109.9533 25.6985,-20 25.6985,-20 25.6985,-14 31.6985,-8 37.6985,-8"/>
<text text-anchor="middle" x="124.1985" y="-15.8" font-family="Times,serif" font-size="14.00" fill="#000000">90</text>
</g>
<!-- μ -->
<g id="node1" class="node">
<title>μ</title>
<ellipse fill="none" stroke="#000000" cx="29.6985" cy="-309.3833" rx="29.8983" ry="37.4533"/>
<text text-anchor="middle" x="29.6985" y="-320.6833" font-family="Times,serif" font-size="14.00" fill="#000000">μ</text>
<text text-anchor="middle" x="29.6985" y="-305.6833" font-family="Times,serif" font-size="14.00" fill="#000000">~</text>
<text text-anchor="middle" x="29.6985" y="-290.6833" font-family="Times,serif" font-size="14.00" fill="#000000">Beta</text>
</g>
<!-- θ -->
<g id="node3" class="node">
<title>θ</title>
<ellipse fill="none" stroke="#000000" cx="82.6985" cy="-198.43" rx="29.8983" ry="37.4533"/>
<text text-anchor="middle" x="82.6985" y="-209.73" font-family="Times,serif" font-size="14.00" fill="#000000">θ</text>
<text text-anchor="middle" x="82.6985" y="-194.73" font-family="Times,serif" font-size="14.00" fill="#000000">~</text>
<text text-anchor="middle" x="82.6985" y="-179.73" font-family="Times,serif" font-size="14.00" fill="#000000">Beta</text>
</g>
<!-- μ&#45;&gt;θ -->
<g id="edge1" class="edge">
<title>μ&#45;&gt;θ</title>
<path fill="none" stroke="#000000" d="M45.1708,-276.9927C50.722,-265.3713 57.0592,-252.1049 62.9253,-239.8243"/>
<polygon fill="#000000" stroke="#000000" points="66.1465,-241.201 67.2986,-230.669 59.8301,-238.1838 66.1465,-241.201"/>
</g>
<!-- κ -->
<g id="node2" class="node">
<title>κ</title>
<ellipse fill="none" stroke="#000000" cx="136.6985" cy="-309.3833" rx="59.2941" ry="37.4533"/>
<text text-anchor="middle" x="136.6985" y="-320.6833" font-family="Times,serif" font-size="14.00" fill="#000000">κ</text>
<text text-anchor="middle" x="136.6985" y="-305.6833" font-family="Times,serif" font-size="14.00" fill="#000000">~</text>
<text text-anchor="middle" x="136.6985" y="-290.6833" font-family="Times,serif" font-size="14.00" fill="#000000">HalfNormal</text>
</g>
<!-- κ&#45;&gt;θ -->
<g id="edge2" class="edge">
<title>κ&#45;&gt;θ</title>
<path fill="none" stroke="#000000" d="M119.1662,-273.3599C113.9213,-262.5831 108.1305,-250.6849 102.7374,-239.6038"/>
<polygon fill="#000000" stroke="#000000" points="105.8448,-237.9904 98.3215,-230.5304 99.5506,-241.0537 105.8448,-237.9904"/>
</g>
<!-- y -->
<g id="node4" class="node">
<title>y</title>
<ellipse fill="#d3d3d3" stroke="#000000" cx="82.6985" cy="-76.4767" rx="48.5816" ry="37.4533"/>
<text text-anchor="middle" x="82.6985" y="-87.7767" font-family="Times,serif" font-size="14.00" fill="#000000">y</text>
<text text-anchor="middle" x="82.6985" y="-72.7767" font-family="Times,serif" font-size="14.00" fill="#000000">~</text>
<text text-anchor="middle" x="82.6985" y="-57.7767" font-family="Times,serif" font-size="14.00" fill="#000000">Bernoulli</text>
</g>
<!-- θ&#45;&gt;y -->
<g id="edge3" class="edge">
<title>θ&#45;&gt;y</title>
<path fill="none" stroke="#000000" d="M82.6985,-160.8449C82.6985,-149.2534 82.6985,-136.3328 82.6985,-124.1558"/>
<polygon fill="#000000" stroke="#000000" points="86.1986,-124.1476 82.6985,-114.1476 79.1986,-124.1476 86.1986,-124.1476"/>
</g>
</g>
</svg>
