<?xml version="1.0" encoding="UTF-8" standalone="no"?>
<!DOCTYPE svg PUBLIC "-//W3C//DTD SVG 1.1//EN"
 "http://www.w3.org/Graphics/SVG/1.1/DTD/svg11.dtd">
<!-- Generated by graphviz version 2.42.3 (20191010.1750)
 -->
<!-- Title: %3 Pages: 1 -->
<svg width="543pt" height="226pt"
 viewBox="0.00 0.00 543.36 226.00" xmlns="http://www.w3.org/2000/svg" xmlns:xlink="http://www.w3.org/1999/xlink">
<g id="graph0" class="graph" transform="scale(1 1) rotate(0) translate(4 222)">
<title>%3</title>
<polygon fill="white" stroke="transparent" points="-4,4 -4,-222 539.36,-222 539.36,4 -4,4"/>
<g id="clust1" class="cluster">
<title>cluster11</title>
<path fill="none" stroke="black" d="M204.47,-8C204.47,-8 348.47,-8 348.47,-8 354.47,-8 360.47,-14 360.47,-20 360.47,-20 360.47,-70 360.47,-70 360.47,-76 354.47,-82 348.47,-82 348.47,-82 204.47,-82 204.47,-82 198.47,-82 192.47,-76 192.47,-70 192.47,-70 192.47,-20 192.47,-20 192.47,-14 198.47,-8 204.47,-8"/>
<text text-anchor="middle" x="345.73" y="-14.8" font-family="Times,serif" font-size="14.00">11</text>
</g>
<!-- ϵ -->
<g id="node1" class="node">
<title>ϵ</title>
<ellipse fill="none" stroke="black" cx="73.47" cy="-128" rx="73.45" ry="18"/>
<text text-anchor="middle" x="73.47" y="-125.32" font-family="Times,serif" font-size="14.00">ϵ ~ HalfNormal</text>
</g>
<!-- y_pred -->
<g id="node6" class="node">
<title>y_pred</title>
<ellipse fill="lightgrey" stroke="black" cx="276.47" cy="-56" rx="76.09" ry="18"/>
<text text-anchor="middle" x="276.47" y="-51.8" font-family="Times,serif" font-size="14.00">y_pred ~ StudentT</text>
</g>
<!-- ϵ&#45;&gt;y_pred -->
<g id="edge2" class="edge">
<title>ϵ&#45;&gt;y_pred</title>
<path fill="none" stroke="black" d="M114.56,-112.83C146.5,-101.82 191.01,-86.47 225.28,-74.65"/>
<polygon fill="black" stroke="black" points="226.8,-77.83 235.11,-71.26 224.51,-71.22 226.8,-77.83"/>
</g>
<!-- β -->
<g id="node2" class="node">
<title>β</title>
<ellipse fill="none" stroke="black" cx="216.47" cy="-128" rx="51.49" ry="18"/>
<text text-anchor="middle" x="216.47" y="-123.8" font-family="Times,serif" font-size="14.00">β ~ Normal</text>
</g>
<!-- β&#45;&gt;y_pred -->
<g id="edge3" class="edge">
<title>β&#45;&gt;y_pred</title>
<path fill="none" stroke="black" d="M230.69,-110.41C238.06,-101.82 247.2,-91.16 255.37,-81.63"/>
<polygon fill="black" stroke="black" points="258.09,-83.83 261.94,-73.96 252.78,-79.27 258.09,-83.83"/>
</g>
<!-- ν_ -->
<g id="node3" class="node">
<title>ν_</title>
<ellipse fill="none" stroke="black" cx="464.47" cy="-200" rx="70.78" ry="18"/>
<text text-anchor="middle" x="464.47" y="-195.8" font-family="Times,serif" font-size="14.00">ν_ ~ Exponential</text>
</g>
<!-- ν -->
<g id="node5" class="node">
<title>ν</title>
<polygon fill="none" stroke="black" points="521.25,-146 407.7,-146 407.7,-110 521.25,-110 521.25,-146"/>
<text text-anchor="middle" x="464.47" y="-123.8" font-family="Times,serif" font-size="14.00">ν ~ Deterministic</text>
</g>
<!-- ν_&#45;&gt;ν -->
<g id="edge1" class="edge">
<title>ν_&#45;&gt;ν</title>
<path fill="none" stroke="black" d="M464.47,-181.7C464.47,-173.98 464.47,-164.71 464.47,-156.11"/>
<polygon fill="black" stroke="black" points="467.98,-156.1 464.47,-146.1 460.98,-156.1 467.98,-156.1"/>
</g>
<!-- α -->
<g id="node4" class="node">
<title>α</title>
<ellipse fill="none" stroke="black" cx="337.47" cy="-128" rx="51.96" ry="18"/>
<text text-anchor="middle" x="337.47" y="-123.8" font-family="Times,serif" font-size="14.00">α ~ Normal</text>
</g>
<!-- α&#45;&gt;y_pred -->
<g id="edge4" class="edge">
<title>α&#45;&gt;y_pred</title>
<path fill="none" stroke="black" d="M323.02,-110.41C315.53,-101.82 306.24,-91.16 297.94,-81.63"/>
<polygon fill="black" stroke="black" points="300.46,-79.2 291.25,-73.96 295.18,-83.79 300.46,-79.2"/>
</g>
<!-- ν&#45;&gt;y_pred -->
<g id="edge5" class="edge">
<title>ν&#45;&gt;y_pred</title>
<path fill="none" stroke="black" d="M418.49,-109.88C390.16,-99.33 353.89,-85.82 325.09,-75.1"/>
<polygon fill="black" stroke="black" points="326.23,-71.79 315.64,-71.58 323.79,-78.35 326.23,-71.79"/>
</g>
</g>
</svg>
