<?xml version="1.0" encoding="UTF-8" standalone="no"?>
<!DOCTYPE svg PUBLIC "-//W3C//DTD SVG 1.1//EN"
 "http://www.w3.org/Graphics/SVG/1.1/DTD/svg11.dtd">
<!-- Generated by graphviz version 2.40.1 (20161225.0304)
 -->
<!-- Title: %3 Pages: 1 -->
<svg width="245pt" height="349pt"
 viewBox="0.00 0.00 245.00 348.91" xmlns="http://www.w3.org/2000/svg" xmlns:xlink="http://www.w3.org/1999/xlink">
<g id="graph0" class="graph" transform="scale(1 1) rotate(0) translate(4 344.9066)">
<title>%3</title>
<polygon fill="#ffffff" stroke="transparent" points="-4,4 -4,-344.9066 241,-344.9066 241,4 -4,4"/>
<g id="clust1" class="cluster">
<title>cluster2</title>
<path fill="none" stroke="#000000" d="M133,-218.9533C133,-218.9533 209,-218.9533 209,-218.9533 215,-218.9533 221,-224.9533 221,-230.9533 221,-230.9533 221,-320.9066 221,-320.9066 221,-326.9066 215,-332.9066 209,-332.9066 209,-332.9066 133,-332.9066 133,-332.9066 127,-332.9066 121,-326.9066 121,-320.9066 121,-320.9066 121,-230.9533 121,-230.9533 121,-224.9533 127,-218.9533 133,-218.9533"/>
<text text-anchor="middle" x="209" y="-226.7533" font-family="Times,serif" font-size="14.00" fill="#000000">2</text>
</g>
<g id="clust2" class="cluster">
<title>cluster100</title>
<path fill="none" stroke="#000000" d="M20,-8C20,-8 217,-8 217,-8 223,-8 229,-14 229,-20 229,-20 229,-198.9533 229,-198.9533 229,-204.9533 223,-210.9533 217,-210.9533 217,-210.9533 20,-210.9533 20,-210.9533 14,-210.9533 8,-204.9533 8,-198.9533 8,-198.9533 8,-20 8,-20 8,-14 14,-8 20,-8"/>
<text text-anchor="middle" x="210" y="-15.8" font-family="Times,serif" font-size="14.00" fill="#000000">100</text>
</g>
<!-- α -->
<g id="node1" class="node">
<title>α</title>
<ellipse fill="none" stroke="#000000" cx="65" cy="-287.43" rx="41.9398" ry="37.4533"/>
<text text-anchor="middle" x="65" y="-298.73" font-family="Times,serif" font-size="14.00" fill="#000000">α</text>
<text text-anchor="middle" x="65" y="-283.73" font-family="Times,serif" font-size="14.00" fill="#000000">~</text>
<text text-anchor="middle" x="65" y="-268.73" font-family="Times,serif" font-size="14.00" fill="#000000">Normal</text>
</g>
<!-- bd -->
<g id="node4" class="node">
<title>bd</title>
<polygon fill="none" stroke="#000000" points="220.5,-202.9533 127.5,-202.9533 127.5,-149.9533 220.5,-149.9533 220.5,-202.9533"/>
<text text-anchor="middle" x="174" y="-187.7533" font-family="Times,serif" font-size="14.00" fill="#000000">bd</text>
<text text-anchor="middle" x="174" y="-172.7533" font-family="Times,serif" font-size="14.00" fill="#000000">~</text>
<text text-anchor="middle" x="174" y="-157.7533" font-family="Times,serif" font-size="14.00" fill="#000000">Deterministic</text>
</g>
<!-- α&#45;&gt;bd -->
<g id="edge3" class="edge">
<title>α&#45;&gt;bd</title>
<path fill="none" stroke="#000000" d="M86.5658,-255.2339C95.3249,-243.2331 105.9742,-229.8826 117,-218.9533 120.193,-215.7883 123.6312,-212.6636 127.1802,-209.6318"/>
<polygon fill="#000000" stroke="#000000" points="129.5576,-212.2087 135.0745,-203.1635 125.1211,-206.7941 129.5576,-212.2087"/>
</g>
<!-- θ -->
<g id="node5" class="node">
<title>θ</title>
<polygon fill="none" stroke="#000000" points="109.5,-202.9533 16.5,-202.9533 16.5,-149.9533 109.5,-149.9533 109.5,-202.9533"/>
<text text-anchor="middle" x="63" y="-187.7533" font-family="Times,serif" font-size="14.00" fill="#000000">θ</text>
<text text-anchor="middle" x="63" y="-172.7533" font-family="Times,serif" font-size="14.00" fill="#000000">~</text>
<text text-anchor="middle" x="63" y="-157.7533" font-family="Times,serif" font-size="14.00" fill="#000000">Deterministic</text>
</g>
<!-- α&#45;&gt;θ -->
<g id="edge1" class="edge">
<title>α&#45;&gt;θ</title>
<path fill="none" stroke="#000000" d="M64.3229,-249.8583C64.1112,-238.1113 63.8779,-225.1642 63.6669,-213.4566"/>
<polygon fill="#000000" stroke="#000000" points="67.1604,-213.0585 63.4806,-203.1232 60.1615,-213.1847 67.1604,-213.0585"/>
</g>
<!-- β -->
<g id="node2" class="node">
<title>β</title>
<ellipse fill="none" stroke="#000000" cx="171" cy="-287.43" rx="41.9398" ry="37.4533"/>
<text text-anchor="middle" x="171" y="-298.73" font-family="Times,serif" font-size="14.00" fill="#000000">β</text>
<text text-anchor="middle" x="171" y="-283.73" font-family="Times,serif" font-size="14.00" fill="#000000">~</text>
<text text-anchor="middle" x="171" y="-268.73" font-family="Times,serif" font-size="14.00" fill="#000000">Normal</text>
</g>
<!-- β&#45;&gt;bd -->
<g id="edge4" class="edge">
<title>β&#45;&gt;bd</title>
<path fill="none" stroke="#000000" d="M172.0157,-249.8583C172.3332,-238.1113 172.6832,-225.1642 172.9997,-213.4566"/>
<polygon fill="#000000" stroke="#000000" points="176.5074,-213.2142 173.279,-203.1232 169.51,-213.025 176.5074,-213.2142"/>
</g>
<!-- β&#45;&gt;θ -->
<g id="edge2" class="edge">
<title>β&#45;&gt;θ</title>
<path fill="none" stroke="#000000" d="M147.9888,-255.8745C138.6134,-243.8232 127.3257,-230.27 116,-218.9533 112.8648,-215.8206 109.508,-212.6918 106.0623,-209.6333"/>
<polygon fill="#000000" stroke="#000000" points="108.2945,-206.9368 98.4283,-203.0758 103.7333,-212.2468 108.2945,-206.9368"/>
</g>
<!-- yl -->
<g id="node3" class="node">
<title>yl</title>
<ellipse fill="#d3d3d3" stroke="#000000" cx="65" cy="-76.4767" rx="48.5816" ry="37.4533"/>
<text text-anchor="middle" x="65" y="-87.7767" font-family="Times,serif" font-size="14.00" fill="#000000">yl</text>
<text text-anchor="middle" x="65" y="-72.7767" font-family="Times,serif" font-size="14.00" fill="#000000">~</text>
<text text-anchor="middle" x="65" y="-57.7767" font-family="Times,serif" font-size="14.00" fill="#000000">Bernoulli</text>
</g>
<!-- θ&#45;&gt;yl -->
<g id="edge5" class="edge">
<title>θ&#45;&gt;yl</title>
<path fill="none" stroke="#000000" d="M63.5307,-149.9239C63.6887,-142.0239 63.867,-133.113 64.0435,-124.2925"/>
<polygon fill="#000000" stroke="#000000" points="67.5476,-124.1135 64.2484,-114.0454 60.549,-123.9734 67.5476,-124.1135"/>
</g>
</g>
</svg>
