<?xml version="1.0" encoding="UTF-8" standalone="no"?>
<!DOCTYPE svg PUBLIC "-//W3C//DTD SVG 1.1//EN"
 "http://www.w3.org/Graphics/SVG/1.1/DTD/svg11.dtd">
<!-- Generated by graphviz version 2.40.1 (20161225.0304)
 -->
<!-- Title: %3 Pages: 1 -->
<svg width="345pt" height="260pt"
 viewBox="0.00 0.00 345.40 259.91" xmlns="http://www.w3.org/2000/svg" xmlns:xlink="http://www.w3.org/1999/xlink">
<g id="graph0" class="graph" transform="scale(1 1) rotate(0) translate(4 255.9066)">
<title>%3</title>
<polygon fill="#ffffff" stroke="transparent" points="-4,4 -4,-255.9066 341.397,-255.9066 341.397,4 -4,4"/>
<g id="clust1" class="cluster">
<title>cluster2</title>
<path fill="none" stroke="#000000" d="M241.397,-129.9533C241.397,-129.9533 317.397,-129.9533 317.397,-129.9533 323.397,-129.9533 329.397,-135.9533 329.397,-141.9533 329.397,-141.9533 329.397,-231.9066 329.397,-231.9066 329.397,-237.9066 323.397,-243.9066 317.397,-243.9066 317.397,-243.9066 241.397,-243.9066 241.397,-243.9066 235.397,-243.9066 229.397,-237.9066 229.397,-231.9066 229.397,-231.9066 229.397,-141.9533 229.397,-141.9533 229.397,-135.9533 235.397,-129.9533 241.397,-129.9533"/>
<text text-anchor="middle" x="317.397" y="-137.7533" font-family="Times,serif" font-size="14.00" fill="#000000">2</text>
</g>
<g id="clust2" class="cluster">
<title>cluster100</title>
<path fill="none" stroke="#000000" d="M140.397,-8C140.397,-8 216.397,-8 216.397,-8 222.397,-8 228.397,-14 228.397,-20 228.397,-20 228.397,-109.9533 228.397,-109.9533 228.397,-115.9533 222.397,-121.9533 216.397,-121.9533 216.397,-121.9533 140.397,-121.9533 140.397,-121.9533 134.397,-121.9533 128.397,-115.9533 128.397,-109.9533 128.397,-109.9533 128.397,-20 128.397,-20 128.397,-14 134.397,-8 140.397,-8"/>
<text text-anchor="middle" x="209.397" y="-15.8" font-family="Times,serif" font-size="14.00" fill="#000000">100</text>
</g>
<!-- sigma -->
<g id="node1" class="node">
<title>sigma</title>
<ellipse fill="none" stroke="#000000" cx="59.397" cy="-198.43" rx="59.2941" ry="37.4533"/>
<text text-anchor="middle" x="59.397" y="-209.73" font-family="Times,serif" font-size="14.00" fill="#000000">sigma</text>
<text text-anchor="middle" x="59.397" y="-194.73" font-family="Times,serif" font-size="14.00" fill="#000000">~</text>
<text text-anchor="middle" x="59.397" y="-179.73" font-family="Times,serif" font-size="14.00" fill="#000000">HalfNormal</text>
</g>
<!-- Y_obs -->
<g id="node4" class="node">
<title>Y_obs</title>
<ellipse fill="#d3d3d3" stroke="#000000" cx="178.397" cy="-76.4767" rx="41.9398" ry="37.4533"/>
<text text-anchor="middle" x="178.397" y="-87.7767" font-family="Times,serif" font-size="14.00" fill="#000000">Y_obs</text>
<text text-anchor="middle" x="178.397" y="-72.7767" font-family="Times,serif" font-size="14.00" fill="#000000">~</text>
<text text-anchor="middle" x="178.397" y="-57.7767" font-family="Times,serif" font-size="14.00" fill="#000000">Normal</text>
</g>
<!-- sigma&#45;&gt;Y_obs -->
<g id="edge3" class="edge">
<title>sigma&#45;&gt;Y_obs</title>
<path fill="none" stroke="#000000" d="M90.6628,-166.3882C106.7864,-149.8645 126.5108,-129.6505 143.1709,-112.577"/>
<polygon fill="#000000" stroke="#000000" points="146.1071,-114.5795 150.586,-104.9779 141.097,-109.6907 146.1071,-114.5795"/>
</g>
<!-- alpha -->
<g id="node2" class="node">
<title>alpha</title>
<ellipse fill="none" stroke="#000000" cx="178.397" cy="-198.43" rx="41.9398" ry="37.4533"/>
<text text-anchor="middle" x="178.397" y="-209.73" font-family="Times,serif" font-size="14.00" fill="#000000">alpha</text>
<text text-anchor="middle" x="178.397" y="-194.73" font-family="Times,serif" font-size="14.00" fill="#000000">~</text>
<text text-anchor="middle" x="178.397" y="-179.73" font-family="Times,serif" font-size="14.00" fill="#000000">Normal</text>
</g>
<!-- alpha&#45;&gt;Y_obs -->
<g id="edge2" class="edge">
<title>alpha&#45;&gt;Y_obs</title>
<path fill="none" stroke="#000000" d="M178.397,-160.8449C178.397,-149.2534 178.397,-136.3328 178.397,-124.1558"/>
<polygon fill="#000000" stroke="#000000" points="181.8971,-124.1476 178.397,-114.1476 174.8971,-124.1476 181.8971,-124.1476"/>
</g>
<!-- beta -->
<g id="node3" class="node">
<title>beta</title>
<ellipse fill="none" stroke="#000000" cx="279.397" cy="-198.43" rx="41.9398" ry="37.4533"/>
<text text-anchor="middle" x="279.397" y="-209.73" font-family="Times,serif" font-size="14.00" fill="#000000">beta</text>
<text text-anchor="middle" x="279.397" y="-194.73" font-family="Times,serif" font-size="14.00" fill="#000000">~</text>
<text text-anchor="middle" x="279.397" y="-179.73" font-family="Times,serif" font-size="14.00" fill="#000000">Normal</text>
</g>
<!-- beta&#45;&gt;Y_obs -->
<g id="edge1" class="edge">
<title>beta&#45;&gt;Y_obs</title>
<path fill="none" stroke="#000000" d="M257.338,-166.4102C248.9194,-154.6848 239.0259,-141.4738 229.397,-129.9533 224.3641,-123.9317 218.8244,-117.7344 213.3075,-111.7892"/>
<polygon fill="#000000" stroke="#000000" points="215.7759,-109.3051 206.3715,-104.4257 210.6804,-114.1048 215.7759,-109.3051"/>
</g>
</g>
</svg>
